M48
;DRILL file {kicad (2014-jan-25)-product} date Mon 11 Aug 2014 02:02:24 PM PDT
;FORMAT={2:4/ absolute / inch / suppress leading zeros}
FMAT,2
INCH,TZ
T1C0.039
T2C0.040
T3C0.080
T4C0.125
T5C0.150
%
G90
G05
M72
T1
X44079Y-47638
X45079Y-47638
X46079Y-47638
X47213Y-50984
X51213Y-50984
X52346Y-47638
X53346Y-47638
X54346Y-47638
T2
X41142Y-45079
X41142Y-47047
X41142Y-50591
X41142Y-52559
X41913Y-55020
X42913Y-55020
X43913Y-55020
X44271Y-49409
X46281Y-49409
X48713Y-41701
X48713Y-42701
X48713Y-43701
X48713Y-44701
X48713Y-45701
X49713Y-41701
X49713Y-42701
X49713Y-43701
X49713Y-44701
X49713Y-45701
X52145Y-49409
X54155Y-49409
X57283Y-43898
X57283Y-45866
X57283Y-48228
X57283Y-50197
X57283Y-52559
X57283Y-54528
T3
X46093Y-53418
X46093Y-56818
X49213Y-53418
X49213Y-56818
X52333Y-53418
X52333Y-56818
T4
X41339Y-41339
X41339Y-57087
X57087Y-41339
X57087Y-57087
T5
X45079Y-41038
X53346Y-41038
T0
M30
