%FSLAX34Y34*%
G04 Gerber Fmt 3.4, Leading zero omitted, Abs format*
G04 (created by PCBNEW (2014-jan-25)-product) date Mon 11 Aug 2014 02:02:26 PM PDT*
%MOIN*%
G01*
G70*
G90*
G04 APERTURE LIST*
%ADD10C,0.003937*%
%ADD11C,0.236220*%
%ADD12R,0.068000X0.068000*%
%ADD13C,0.068000*%
%ADD14R,0.060000X0.060000*%
%ADD15C,0.060000*%
%ADD16C,0.080000*%
%ADD17O,0.066900X0.137800*%
%ADD18R,0.380000X0.620000*%
%ADD19C,0.078700*%
%ADD20C,0.150000*%
%ADD21C,0.040000*%
%ADD22C,0.010000*%
G04 APERTURE END LIST*
G54D10*
G54D11*
X41338Y-41338D03*
X57086Y-41338D03*
X41338Y-57086D03*
X57086Y-57086D03*
G54D12*
X41913Y-55019D03*
G54D13*
X42913Y-55019D03*
X43913Y-55019D03*
G54D14*
X48712Y-41700D03*
G54D15*
X49712Y-41700D03*
X48712Y-42700D03*
X49712Y-42700D03*
X48712Y-43700D03*
X49712Y-43700D03*
X48712Y-44700D03*
X49712Y-44700D03*
X48712Y-45700D03*
X49712Y-45700D03*
G54D16*
X57283Y-52559D03*
X57283Y-54527D03*
X57283Y-48228D03*
X57283Y-50196D03*
X57283Y-43897D03*
X57283Y-45866D03*
X41141Y-52559D03*
X41141Y-50590D03*
X41141Y-47047D03*
X41141Y-45078D03*
G54D17*
X53346Y-47637D03*
X52346Y-47637D03*
X54346Y-47637D03*
G54D18*
X53346Y-42937D03*
G54D17*
X45078Y-47637D03*
X44078Y-47637D03*
X46078Y-47637D03*
G54D18*
X45078Y-42937D03*
G54D19*
X47212Y-50984D03*
X51212Y-50984D03*
G54D16*
X54154Y-49409D03*
X52144Y-49409D03*
X46280Y-49409D03*
X44270Y-49409D03*
G54D20*
X49212Y-56818D03*
X49212Y-53418D03*
X52332Y-56818D03*
X46092Y-53418D03*
X52332Y-53418D03*
X46092Y-56818D03*
G54D21*
X49712Y-41700D02*
X48712Y-41700D01*
X57086Y-57086D02*
X58267Y-55905D01*
X58267Y-42519D02*
X57086Y-41338D01*
X58267Y-43110D02*
X58267Y-42519D01*
X58267Y-55905D02*
X58267Y-43110D01*
X44078Y-47637D02*
X44078Y-47062D01*
X44078Y-47062D02*
X44685Y-46456D01*
X47637Y-43775D02*
X48712Y-42700D01*
X47637Y-46259D02*
X47637Y-43775D01*
X47440Y-46456D02*
X47637Y-46259D01*
X44685Y-46456D02*
X47440Y-46456D01*
X49712Y-42700D02*
X48712Y-42700D01*
X57086Y-57086D02*
X55905Y-58267D01*
X42519Y-58267D02*
X41338Y-57086D01*
X55905Y-58267D02*
X42519Y-58267D01*
X44078Y-47637D02*
X41732Y-47637D01*
X41732Y-47637D02*
X41141Y-47047D01*
G54D22*
X42913Y-55019D02*
X46948Y-50984D01*
X46948Y-50984D02*
X47212Y-50984D01*
X41913Y-55019D02*
X48228Y-48704D01*
X48228Y-44185D02*
X48712Y-43700D01*
X48228Y-48704D02*
X48228Y-44185D01*
G54D21*
X49712Y-45700D02*
X48712Y-45700D01*
X46092Y-53418D02*
X46975Y-53418D01*
X50984Y-49409D02*
X52144Y-49409D01*
X46975Y-53418D02*
X50984Y-49409D01*
X49712Y-44700D02*
X50787Y-45775D01*
X51377Y-47637D02*
X52346Y-47637D01*
X50787Y-47047D02*
X51377Y-47637D01*
X50787Y-45775D02*
X50787Y-47047D01*
X49712Y-44700D02*
X48712Y-44700D01*
X52346Y-47637D02*
X52346Y-47062D01*
X52346Y-47062D02*
X52952Y-46456D01*
X52952Y-46456D02*
X55511Y-46456D01*
X55511Y-46456D02*
X57283Y-48228D01*
M02*
