%FSLAX34Y34*%
G04 Gerber Fmt 3.4, Leading zero omitted, Abs format*
G04 (created by PCBNEW (2014-jan-25)-product) date Mon 11 Aug 2014 02:02:26 PM PDT*
%MOIN*%
G01*
G70*
G90*
G04 APERTURE LIST*
%ADD10C,0.003937*%
%ADD11C,0.008000*%
%ADD12C,0.000100*%
G04 APERTURE END LIST*
G54D10*
G54D11*
X47335Y-43459D02*
X47263Y-43483D01*
X47239Y-43507D01*
X47216Y-43555D01*
X47216Y-43626D01*
X47239Y-43674D01*
X47263Y-43697D01*
X47311Y-43721D01*
X47501Y-43721D01*
X47501Y-43221D01*
X47335Y-43221D01*
X47287Y-43245D01*
X47263Y-43269D01*
X47239Y-43317D01*
X47239Y-43364D01*
X47263Y-43412D01*
X47287Y-43436D01*
X47335Y-43459D01*
X47501Y-43459D01*
X46787Y-43388D02*
X46787Y-43721D01*
X47001Y-43388D02*
X47001Y-43650D01*
X46977Y-43697D01*
X46930Y-43721D01*
X46858Y-43721D01*
X46811Y-43697D01*
X46787Y-43674D01*
X46573Y-43697D02*
X46525Y-43721D01*
X46430Y-43721D01*
X46382Y-43697D01*
X46358Y-43650D01*
X46358Y-43626D01*
X46382Y-43578D01*
X46430Y-43555D01*
X46501Y-43555D01*
X46549Y-43531D01*
X46573Y-43483D01*
X46573Y-43459D01*
X46549Y-43412D01*
X46501Y-43388D01*
X46430Y-43388D01*
X46382Y-43412D01*
X45763Y-43721D02*
X45763Y-43221D01*
X45573Y-43221D01*
X45525Y-43245D01*
X45501Y-43269D01*
X45477Y-43317D01*
X45477Y-43388D01*
X45501Y-43436D01*
X45525Y-43459D01*
X45573Y-43483D01*
X45763Y-43483D01*
X45192Y-43721D02*
X45239Y-43697D01*
X45263Y-43674D01*
X45287Y-43626D01*
X45287Y-43483D01*
X45263Y-43436D01*
X45239Y-43412D01*
X45192Y-43388D01*
X45120Y-43388D01*
X45073Y-43412D01*
X45049Y-43436D01*
X45025Y-43483D01*
X45025Y-43626D01*
X45049Y-43674D01*
X45073Y-43697D01*
X45120Y-43721D01*
X45192Y-43721D01*
X44858Y-43388D02*
X44763Y-43721D01*
X44668Y-43483D01*
X44573Y-43721D01*
X44477Y-43388D01*
X44097Y-43697D02*
X44144Y-43721D01*
X44239Y-43721D01*
X44287Y-43697D01*
X44311Y-43650D01*
X44311Y-43459D01*
X44287Y-43412D01*
X44239Y-43388D01*
X44144Y-43388D01*
X44097Y-43412D01*
X44073Y-43459D01*
X44073Y-43507D01*
X44311Y-43555D01*
X43858Y-43721D02*
X43858Y-43388D01*
X43858Y-43483D02*
X43835Y-43436D01*
X43811Y-43412D01*
X43763Y-43388D01*
X43716Y-43388D01*
X42882Y-43721D02*
X43049Y-43483D01*
X43168Y-43721D02*
X43168Y-43221D01*
X42977Y-43221D01*
X42930Y-43245D01*
X42906Y-43269D01*
X42882Y-43317D01*
X42882Y-43388D01*
X42906Y-43436D01*
X42930Y-43459D01*
X42977Y-43483D01*
X43168Y-43483D01*
X42477Y-43697D02*
X42525Y-43721D01*
X42620Y-43721D01*
X42668Y-43697D01*
X42692Y-43650D01*
X42692Y-43459D01*
X42668Y-43412D01*
X42620Y-43388D01*
X42525Y-43388D01*
X42477Y-43412D01*
X42454Y-43459D01*
X42454Y-43507D01*
X42692Y-43555D01*
X42287Y-43388D02*
X42168Y-43721D01*
X42049Y-43388D01*
X41858Y-43674D02*
X41835Y-43697D01*
X41858Y-43721D01*
X41882Y-43697D01*
X41858Y-43674D01*
X41858Y-43721D01*
X41263Y-43578D02*
X41025Y-43578D01*
X41311Y-43721D02*
X41144Y-43221D01*
X40977Y-43721D01*
X45989Y-44501D02*
X46275Y-44501D01*
X46132Y-44501D02*
X46132Y-44001D01*
X46180Y-44073D01*
X46227Y-44120D01*
X46275Y-44144D01*
X45513Y-44501D02*
X45799Y-44501D01*
X45656Y-44501D02*
X45656Y-44001D01*
X45704Y-44073D01*
X45751Y-44120D01*
X45799Y-44144D01*
X45323Y-44358D02*
X45085Y-44358D01*
X45370Y-44501D02*
X45204Y-44001D01*
X45037Y-44501D01*
X44656Y-44168D02*
X44656Y-44501D01*
X44870Y-44168D02*
X44870Y-44430D01*
X44847Y-44477D01*
X44799Y-44501D01*
X44727Y-44501D01*
X44680Y-44477D01*
X44656Y-44454D01*
X44204Y-44168D02*
X44204Y-44573D01*
X44227Y-44620D01*
X44251Y-44644D01*
X44299Y-44668D01*
X44370Y-44668D01*
X44418Y-44644D01*
X44204Y-44477D02*
X44251Y-44501D01*
X44347Y-44501D01*
X44394Y-44477D01*
X44418Y-44454D01*
X44442Y-44406D01*
X44442Y-44263D01*
X44418Y-44216D01*
X44394Y-44192D01*
X44347Y-44168D01*
X44251Y-44168D01*
X44204Y-44192D01*
X43989Y-44049D02*
X43966Y-44025D01*
X43918Y-44001D01*
X43799Y-44001D01*
X43751Y-44025D01*
X43727Y-44049D01*
X43704Y-44097D01*
X43704Y-44144D01*
X43727Y-44216D01*
X44013Y-44501D01*
X43704Y-44501D01*
X43394Y-44001D02*
X43347Y-44001D01*
X43299Y-44025D01*
X43275Y-44049D01*
X43251Y-44097D01*
X43227Y-44192D01*
X43227Y-44311D01*
X43251Y-44406D01*
X43275Y-44454D01*
X43299Y-44477D01*
X43347Y-44501D01*
X43394Y-44501D01*
X43442Y-44477D01*
X43466Y-44454D01*
X43489Y-44406D01*
X43513Y-44311D01*
X43513Y-44192D01*
X43489Y-44097D01*
X43466Y-44049D01*
X43442Y-44025D01*
X43394Y-44001D01*
X42751Y-44501D02*
X43037Y-44501D01*
X42894Y-44501D02*
X42894Y-44001D01*
X42942Y-44073D01*
X42989Y-44120D01*
X43037Y-44144D01*
X42323Y-44168D02*
X42323Y-44501D01*
X42442Y-43977D02*
X42561Y-44335D01*
X42251Y-44335D01*
X46406Y-45472D02*
X46430Y-45448D01*
X46477Y-45377D01*
X46501Y-45329D01*
X46525Y-45257D01*
X46549Y-45138D01*
X46549Y-45043D01*
X46525Y-44924D01*
X46501Y-44853D01*
X46477Y-44805D01*
X46430Y-44734D01*
X46406Y-44710D01*
X46001Y-45257D02*
X46049Y-45281D01*
X46144Y-45281D01*
X46192Y-45257D01*
X46216Y-45234D01*
X46239Y-45186D01*
X46239Y-45043D01*
X46216Y-44996D01*
X46192Y-44972D01*
X46144Y-44948D01*
X46049Y-44948D01*
X46001Y-44972D01*
X45835Y-45472D02*
X45811Y-45448D01*
X45763Y-45377D01*
X45739Y-45329D01*
X45716Y-45257D01*
X45692Y-45138D01*
X45692Y-45043D01*
X45716Y-44924D01*
X45739Y-44853D01*
X45763Y-44805D01*
X45811Y-44734D01*
X45835Y-44710D01*
X44811Y-44805D02*
X44858Y-44781D01*
X44930Y-44781D01*
X45001Y-44805D01*
X45049Y-44853D01*
X45073Y-44900D01*
X45097Y-44996D01*
X45097Y-45067D01*
X45073Y-45162D01*
X45049Y-45210D01*
X45001Y-45257D01*
X44930Y-45281D01*
X44882Y-45281D01*
X44811Y-45257D01*
X44787Y-45234D01*
X44787Y-45067D01*
X44882Y-45067D01*
X44573Y-45281D02*
X44573Y-44948D01*
X44573Y-45043D02*
X44549Y-44996D01*
X44525Y-44972D01*
X44477Y-44948D01*
X44430Y-44948D01*
X44049Y-45281D02*
X44049Y-45019D01*
X44073Y-44972D01*
X44120Y-44948D01*
X44216Y-44948D01*
X44263Y-44972D01*
X44049Y-45257D02*
X44097Y-45281D01*
X44216Y-45281D01*
X44263Y-45257D01*
X44287Y-45210D01*
X44287Y-45162D01*
X44263Y-45115D01*
X44216Y-45091D01*
X44097Y-45091D01*
X44049Y-45067D01*
X43811Y-45281D02*
X43811Y-44948D01*
X43811Y-44996D02*
X43787Y-44972D01*
X43739Y-44948D01*
X43668Y-44948D01*
X43620Y-44972D01*
X43597Y-45019D01*
X43597Y-45281D01*
X43597Y-45019D02*
X43573Y-44972D01*
X43525Y-44948D01*
X43454Y-44948D01*
X43406Y-44972D01*
X43382Y-45019D01*
X43382Y-45281D01*
X43073Y-45281D02*
X43120Y-45257D01*
X43144Y-45210D01*
X43144Y-44781D01*
X42882Y-45281D02*
X42882Y-44948D01*
X42882Y-44781D02*
X42906Y-44805D01*
X42882Y-44829D01*
X42858Y-44805D01*
X42882Y-44781D01*
X42882Y-44829D01*
X42430Y-45257D02*
X42477Y-45281D01*
X42573Y-45281D01*
X42620Y-45257D01*
X42644Y-45234D01*
X42668Y-45186D01*
X42668Y-45043D01*
X42644Y-44996D01*
X42620Y-44972D01*
X42573Y-44948D01*
X42477Y-44948D01*
X42430Y-44972D01*
X42216Y-45281D02*
X42216Y-44781D01*
X42001Y-45281D02*
X42001Y-45019D01*
X42025Y-44972D01*
X42073Y-44948D01*
X42144Y-44948D01*
X42192Y-44972D01*
X42216Y-44996D01*
X56026Y-46568D02*
X56026Y-46068D01*
X55812Y-46568D02*
X55812Y-46306D01*
X55836Y-46259D01*
X55883Y-46235D01*
X55955Y-46235D01*
X56002Y-46259D01*
X56026Y-46282D01*
X55359Y-46568D02*
X55359Y-46306D01*
X55383Y-46259D01*
X55431Y-46235D01*
X55526Y-46235D01*
X55574Y-46259D01*
X55359Y-46544D02*
X55407Y-46568D01*
X55526Y-46568D01*
X55574Y-46544D01*
X55598Y-46497D01*
X55598Y-46449D01*
X55574Y-46402D01*
X55526Y-46378D01*
X55407Y-46378D01*
X55359Y-46354D01*
X55121Y-46568D02*
X55121Y-46235D01*
X55121Y-46330D02*
X55098Y-46282D01*
X55074Y-46259D01*
X55026Y-46235D01*
X54979Y-46235D01*
X54598Y-46568D02*
X54598Y-46068D01*
X54598Y-46544D02*
X54645Y-46568D01*
X54740Y-46568D01*
X54788Y-46544D01*
X54812Y-46521D01*
X54836Y-46473D01*
X54836Y-46330D01*
X54812Y-46282D01*
X54788Y-46259D01*
X54740Y-46235D01*
X54645Y-46235D01*
X54598Y-46259D01*
X54407Y-46235D02*
X54312Y-46568D01*
X54217Y-46330D01*
X54121Y-46568D01*
X54026Y-46235D01*
X53621Y-46568D02*
X53621Y-46306D01*
X53645Y-46259D01*
X53693Y-46235D01*
X53788Y-46235D01*
X53836Y-46259D01*
X53621Y-46544D02*
X53669Y-46568D01*
X53788Y-46568D01*
X53836Y-46544D01*
X53859Y-46497D01*
X53859Y-46449D01*
X53836Y-46402D01*
X53788Y-46378D01*
X53669Y-46378D01*
X53621Y-46354D01*
X53383Y-46568D02*
X53383Y-46235D01*
X53383Y-46330D02*
X53359Y-46282D01*
X53336Y-46259D01*
X53288Y-46235D01*
X53240Y-46235D01*
X52883Y-46544D02*
X52931Y-46568D01*
X53026Y-46568D01*
X53074Y-46544D01*
X53098Y-46497D01*
X53098Y-46306D01*
X53074Y-46259D01*
X53026Y-46235D01*
X52931Y-46235D01*
X52883Y-46259D01*
X52859Y-46306D01*
X52859Y-46354D01*
X53098Y-46402D01*
X56404Y-45895D02*
X56451Y-45871D01*
X56475Y-45847D01*
X56499Y-45800D01*
X56499Y-45657D01*
X56475Y-45609D01*
X56451Y-45585D01*
X56404Y-45562D01*
X56332Y-45562D01*
X56284Y-45585D01*
X56261Y-45609D01*
X56237Y-45657D01*
X56237Y-45800D01*
X56261Y-45847D01*
X56284Y-45871D01*
X56332Y-45895D01*
X56404Y-45895D01*
X56023Y-45562D02*
X56023Y-46062D01*
X56023Y-45585D02*
X55975Y-45562D01*
X55880Y-45562D01*
X55832Y-45585D01*
X55808Y-45609D01*
X55784Y-45657D01*
X55784Y-45800D01*
X55808Y-45847D01*
X55832Y-45871D01*
X55880Y-45895D01*
X55975Y-45895D01*
X56023Y-45871D01*
X55380Y-45871D02*
X55427Y-45895D01*
X55523Y-45895D01*
X55570Y-45871D01*
X55594Y-45824D01*
X55594Y-45633D01*
X55570Y-45585D01*
X55523Y-45562D01*
X55427Y-45562D01*
X55380Y-45585D01*
X55356Y-45633D01*
X55356Y-45681D01*
X55594Y-45728D01*
X55142Y-45562D02*
X55142Y-45895D01*
X55142Y-45609D02*
X55118Y-45585D01*
X55070Y-45562D01*
X54999Y-45562D01*
X54951Y-45585D01*
X54927Y-45633D01*
X54927Y-45895D01*
X54332Y-45871D02*
X54284Y-45895D01*
X54189Y-45895D01*
X54142Y-45871D01*
X54118Y-45824D01*
X54118Y-45800D01*
X54142Y-45752D01*
X54189Y-45728D01*
X54261Y-45728D01*
X54308Y-45705D01*
X54332Y-45657D01*
X54332Y-45633D01*
X54308Y-45585D01*
X54261Y-45562D01*
X54189Y-45562D01*
X54142Y-45585D01*
X53832Y-45895D02*
X53880Y-45871D01*
X53904Y-45847D01*
X53927Y-45800D01*
X53927Y-45657D01*
X53904Y-45609D01*
X53880Y-45585D01*
X53832Y-45562D01*
X53761Y-45562D01*
X53713Y-45585D01*
X53689Y-45609D01*
X53665Y-45657D01*
X53665Y-45800D01*
X53689Y-45847D01*
X53713Y-45871D01*
X53761Y-45895D01*
X53832Y-45895D01*
X53237Y-45562D02*
X53237Y-45895D01*
X53451Y-45562D02*
X53451Y-45824D01*
X53427Y-45871D01*
X53380Y-45895D01*
X53308Y-45895D01*
X53261Y-45871D01*
X53237Y-45847D01*
X52999Y-45895D02*
X52999Y-45562D01*
X52999Y-45657D02*
X52975Y-45609D01*
X52951Y-45585D01*
X52904Y-45562D01*
X52856Y-45562D01*
X52475Y-45871D02*
X52523Y-45895D01*
X52618Y-45895D01*
X52665Y-45871D01*
X52689Y-45847D01*
X52713Y-45800D01*
X52713Y-45657D01*
X52689Y-45609D01*
X52665Y-45585D01*
X52618Y-45562D01*
X52523Y-45562D01*
X52475Y-45585D01*
X52070Y-45871D02*
X52118Y-45895D01*
X52213Y-45895D01*
X52261Y-45871D01*
X52284Y-45824D01*
X52284Y-45633D01*
X52261Y-45585D01*
X52213Y-45562D01*
X52118Y-45562D01*
X52070Y-45585D01*
X52046Y-45633D01*
X52046Y-45681D01*
X52284Y-45728D01*
G54D12*
G36*
X53413Y-45299D02*
X53434Y-45289D01*
X53481Y-45259D01*
X53547Y-45215D01*
X53626Y-45162D01*
X53705Y-45109D01*
X53771Y-45065D01*
X53816Y-45036D01*
X53835Y-45025D01*
X53845Y-45029D01*
X53883Y-45047D01*
X53938Y-45076D01*
X53969Y-45092D01*
X54020Y-45114D01*
X54044Y-45118D01*
X54049Y-45111D01*
X54067Y-45073D01*
X54096Y-45007D01*
X54134Y-44921D01*
X54177Y-44819D01*
X54223Y-44710D01*
X54270Y-44598D01*
X54314Y-44491D01*
X54353Y-44396D01*
X54384Y-44318D01*
X54405Y-44264D01*
X54413Y-44240D01*
X54410Y-44236D01*
X54385Y-44211D01*
X54341Y-44178D01*
X54247Y-44102D01*
X54153Y-43985D01*
X54096Y-43852D01*
X54078Y-43705D01*
X54094Y-43569D01*
X54147Y-43438D01*
X54239Y-43320D01*
X54350Y-43232D01*
X54479Y-43177D01*
X54625Y-43159D01*
X54764Y-43175D01*
X54898Y-43227D01*
X55016Y-43317D01*
X55066Y-43375D01*
X55135Y-43494D01*
X55174Y-43622D01*
X55178Y-43655D01*
X55172Y-43795D01*
X55131Y-43930D01*
X55056Y-44050D01*
X54953Y-44149D01*
X54941Y-44158D01*
X54893Y-44194D01*
X54861Y-44218D01*
X54836Y-44239D01*
X55015Y-44669D01*
X55043Y-44738D01*
X55092Y-44855D01*
X55136Y-44957D01*
X55170Y-45038D01*
X55194Y-45091D01*
X55204Y-45113D01*
X55206Y-45114D01*
X55221Y-45117D01*
X55254Y-45105D01*
X55314Y-45076D01*
X55354Y-45056D01*
X55400Y-45034D01*
X55420Y-45025D01*
X55437Y-45035D01*
X55482Y-45063D01*
X55546Y-45106D01*
X55623Y-45158D01*
X55696Y-45208D01*
X55763Y-45253D01*
X55813Y-45284D01*
X55836Y-45297D01*
X55840Y-45297D01*
X55861Y-45285D01*
X55900Y-45253D01*
X55959Y-45197D01*
X56042Y-45116D01*
X56054Y-45103D01*
X56122Y-45034D01*
X56178Y-44975D01*
X56215Y-44934D01*
X56228Y-44915D01*
X56228Y-44915D01*
X56216Y-44892D01*
X56185Y-44843D01*
X56140Y-44774D01*
X56086Y-44694D01*
X55943Y-44487D01*
X56022Y-44292D01*
X56046Y-44232D01*
X56076Y-44159D01*
X56099Y-44107D01*
X56111Y-44085D01*
X56132Y-44077D01*
X56185Y-44064D01*
X56263Y-44048D01*
X56355Y-44031D01*
X56443Y-44015D01*
X56523Y-44000D01*
X56581Y-43989D01*
X56607Y-43983D01*
X56613Y-43980D01*
X56618Y-43967D01*
X56621Y-43940D01*
X56623Y-43892D01*
X56624Y-43816D01*
X56624Y-43705D01*
X56624Y-43693D01*
X56623Y-43588D01*
X56622Y-43504D01*
X56619Y-43450D01*
X56615Y-43428D01*
X56615Y-43428D01*
X56590Y-43422D01*
X56534Y-43410D01*
X56454Y-43394D01*
X56359Y-43376D01*
X56353Y-43375D01*
X56259Y-43357D01*
X56179Y-43340D01*
X56124Y-43327D01*
X56100Y-43320D01*
X56096Y-43313D01*
X56076Y-43277D01*
X56049Y-43218D01*
X56018Y-43146D01*
X55987Y-43072D01*
X55960Y-43005D01*
X55942Y-42955D01*
X55937Y-42933D01*
X55937Y-42932D01*
X55952Y-42909D01*
X55984Y-42861D01*
X56030Y-42792D01*
X56085Y-42712D01*
X56090Y-42706D01*
X56144Y-42626D01*
X56188Y-42558D01*
X56217Y-42510D01*
X56228Y-42488D01*
X56228Y-42487D01*
X56210Y-42463D01*
X56169Y-42418D01*
X56111Y-42357D01*
X56041Y-42286D01*
X56019Y-42264D01*
X55941Y-42188D01*
X55887Y-42139D01*
X55853Y-42112D01*
X55837Y-42106D01*
X55837Y-42107D01*
X55813Y-42121D01*
X55762Y-42154D01*
X55694Y-42201D01*
X55613Y-42256D01*
X55607Y-42260D01*
X55527Y-42314D01*
X55460Y-42359D01*
X55413Y-42390D01*
X55392Y-42403D01*
X55389Y-42403D01*
X55356Y-42393D01*
X55299Y-42373D01*
X55229Y-42346D01*
X55155Y-42317D01*
X55088Y-42288D01*
X55038Y-42265D01*
X55014Y-42252D01*
X55013Y-42250D01*
X55005Y-42222D01*
X54991Y-42162D01*
X54974Y-42080D01*
X54956Y-41982D01*
X54953Y-41966D01*
X54935Y-41871D01*
X54919Y-41792D01*
X54908Y-41738D01*
X54903Y-41715D01*
X54889Y-41712D01*
X54842Y-41709D01*
X54771Y-41707D01*
X54685Y-41706D01*
X54595Y-41707D01*
X54506Y-41708D01*
X54431Y-41711D01*
X54377Y-41715D01*
X54354Y-41719D01*
X54354Y-41721D01*
X54345Y-41750D01*
X54332Y-41810D01*
X54315Y-41893D01*
X54297Y-41991D01*
X54293Y-42008D01*
X54275Y-42103D01*
X54259Y-42181D01*
X54248Y-42235D01*
X54242Y-42256D01*
X54233Y-42261D01*
X54194Y-42278D01*
X54130Y-42304D01*
X54051Y-42336D01*
X53868Y-42410D01*
X53644Y-42256D01*
X53623Y-42242D01*
X53542Y-42187D01*
X53476Y-42143D01*
X53430Y-42113D01*
X53411Y-42102D01*
X53409Y-42103D01*
X53387Y-42123D01*
X53342Y-42165D01*
X53282Y-42224D01*
X53211Y-42294D01*
X53159Y-42346D01*
X53097Y-42409D01*
X53058Y-42452D01*
X53036Y-42479D01*
X53029Y-42495D01*
X53030Y-42506D01*
X53045Y-42529D01*
X53078Y-42579D01*
X53124Y-42647D01*
X53179Y-42726D01*
X53224Y-42792D01*
X53273Y-42868D01*
X53304Y-42922D01*
X53315Y-42948D01*
X53312Y-42959D01*
X53297Y-43003D01*
X53270Y-43069D01*
X53236Y-43148D01*
X53158Y-43326D01*
X53042Y-43348D01*
X52971Y-43362D01*
X52873Y-43381D01*
X52778Y-43399D01*
X52631Y-43428D01*
X52625Y-43970D01*
X52648Y-43979D01*
X52670Y-43985D01*
X52725Y-43997D01*
X52803Y-44013D01*
X52895Y-44030D01*
X52973Y-44045D01*
X53052Y-44060D01*
X53109Y-44071D01*
X53134Y-44076D01*
X53140Y-44085D01*
X53160Y-44123D01*
X53188Y-44184D01*
X53220Y-44257D01*
X53251Y-44333D01*
X53279Y-44403D01*
X53298Y-44456D01*
X53306Y-44484D01*
X53295Y-44505D01*
X53265Y-44551D01*
X53221Y-44617D01*
X53168Y-44696D01*
X53114Y-44774D01*
X53069Y-44841D01*
X53037Y-44890D01*
X53024Y-44912D01*
X53030Y-44927D01*
X53062Y-44965D01*
X53121Y-45026D01*
X53209Y-45113D01*
X53224Y-45127D01*
X53294Y-45195D01*
X53353Y-45249D01*
X53394Y-45286D01*
X53413Y-45299D01*
X53413Y-45299D01*
G37*
X53413Y-45299D02*
X53434Y-45289D01*
X53481Y-45259D01*
X53547Y-45215D01*
X53626Y-45162D01*
X53705Y-45109D01*
X53771Y-45065D01*
X53816Y-45036D01*
X53835Y-45025D01*
X53845Y-45029D01*
X53883Y-45047D01*
X53938Y-45076D01*
X53969Y-45092D01*
X54020Y-45114D01*
X54044Y-45118D01*
X54049Y-45111D01*
X54067Y-45073D01*
X54096Y-45007D01*
X54134Y-44921D01*
X54177Y-44819D01*
X54223Y-44710D01*
X54270Y-44598D01*
X54314Y-44491D01*
X54353Y-44396D01*
X54384Y-44318D01*
X54405Y-44264D01*
X54413Y-44240D01*
X54410Y-44236D01*
X54385Y-44211D01*
X54341Y-44178D01*
X54247Y-44102D01*
X54153Y-43985D01*
X54096Y-43852D01*
X54078Y-43705D01*
X54094Y-43569D01*
X54147Y-43438D01*
X54239Y-43320D01*
X54350Y-43232D01*
X54479Y-43177D01*
X54625Y-43159D01*
X54764Y-43175D01*
X54898Y-43227D01*
X55016Y-43317D01*
X55066Y-43375D01*
X55135Y-43494D01*
X55174Y-43622D01*
X55178Y-43655D01*
X55172Y-43795D01*
X55131Y-43930D01*
X55056Y-44050D01*
X54953Y-44149D01*
X54941Y-44158D01*
X54893Y-44194D01*
X54861Y-44218D01*
X54836Y-44239D01*
X55015Y-44669D01*
X55043Y-44738D01*
X55092Y-44855D01*
X55136Y-44957D01*
X55170Y-45038D01*
X55194Y-45091D01*
X55204Y-45113D01*
X55206Y-45114D01*
X55221Y-45117D01*
X55254Y-45105D01*
X55314Y-45076D01*
X55354Y-45056D01*
X55400Y-45034D01*
X55420Y-45025D01*
X55437Y-45035D01*
X55482Y-45063D01*
X55546Y-45106D01*
X55623Y-45158D01*
X55696Y-45208D01*
X55763Y-45253D01*
X55813Y-45284D01*
X55836Y-45297D01*
X55840Y-45297D01*
X55861Y-45285D01*
X55900Y-45253D01*
X55959Y-45197D01*
X56042Y-45116D01*
X56054Y-45103D01*
X56122Y-45034D01*
X56178Y-44975D01*
X56215Y-44934D01*
X56228Y-44915D01*
X56228Y-44915D01*
X56216Y-44892D01*
X56185Y-44843D01*
X56140Y-44774D01*
X56086Y-44694D01*
X55943Y-44487D01*
X56022Y-44292D01*
X56046Y-44232D01*
X56076Y-44159D01*
X56099Y-44107D01*
X56111Y-44085D01*
X56132Y-44077D01*
X56185Y-44064D01*
X56263Y-44048D01*
X56355Y-44031D01*
X56443Y-44015D01*
X56523Y-44000D01*
X56581Y-43989D01*
X56607Y-43983D01*
X56613Y-43980D01*
X56618Y-43967D01*
X56621Y-43940D01*
X56623Y-43892D01*
X56624Y-43816D01*
X56624Y-43705D01*
X56624Y-43693D01*
X56623Y-43588D01*
X56622Y-43504D01*
X56619Y-43450D01*
X56615Y-43428D01*
X56615Y-43428D01*
X56590Y-43422D01*
X56534Y-43410D01*
X56454Y-43394D01*
X56359Y-43376D01*
X56353Y-43375D01*
X56259Y-43357D01*
X56179Y-43340D01*
X56124Y-43327D01*
X56100Y-43320D01*
X56096Y-43313D01*
X56076Y-43277D01*
X56049Y-43218D01*
X56018Y-43146D01*
X55987Y-43072D01*
X55960Y-43005D01*
X55942Y-42955D01*
X55937Y-42933D01*
X55937Y-42932D01*
X55952Y-42909D01*
X55984Y-42861D01*
X56030Y-42792D01*
X56085Y-42712D01*
X56090Y-42706D01*
X56144Y-42626D01*
X56188Y-42558D01*
X56217Y-42510D01*
X56228Y-42488D01*
X56228Y-42487D01*
X56210Y-42463D01*
X56169Y-42418D01*
X56111Y-42357D01*
X56041Y-42286D01*
X56019Y-42264D01*
X55941Y-42188D01*
X55887Y-42139D01*
X55853Y-42112D01*
X55837Y-42106D01*
X55837Y-42107D01*
X55813Y-42121D01*
X55762Y-42154D01*
X55694Y-42201D01*
X55613Y-42256D01*
X55607Y-42260D01*
X55527Y-42314D01*
X55460Y-42359D01*
X55413Y-42390D01*
X55392Y-42403D01*
X55389Y-42403D01*
X55356Y-42393D01*
X55299Y-42373D01*
X55229Y-42346D01*
X55155Y-42317D01*
X55088Y-42288D01*
X55038Y-42265D01*
X55014Y-42252D01*
X55013Y-42250D01*
X55005Y-42222D01*
X54991Y-42162D01*
X54974Y-42080D01*
X54956Y-41982D01*
X54953Y-41966D01*
X54935Y-41871D01*
X54919Y-41792D01*
X54908Y-41738D01*
X54903Y-41715D01*
X54889Y-41712D01*
X54842Y-41709D01*
X54771Y-41707D01*
X54685Y-41706D01*
X54595Y-41707D01*
X54506Y-41708D01*
X54431Y-41711D01*
X54377Y-41715D01*
X54354Y-41719D01*
X54354Y-41721D01*
X54345Y-41750D01*
X54332Y-41810D01*
X54315Y-41893D01*
X54297Y-41991D01*
X54293Y-42008D01*
X54275Y-42103D01*
X54259Y-42181D01*
X54248Y-42235D01*
X54242Y-42256D01*
X54233Y-42261D01*
X54194Y-42278D01*
X54130Y-42304D01*
X54051Y-42336D01*
X53868Y-42410D01*
X53644Y-42256D01*
X53623Y-42242D01*
X53542Y-42187D01*
X53476Y-42143D01*
X53430Y-42113D01*
X53411Y-42102D01*
X53409Y-42103D01*
X53387Y-42123D01*
X53342Y-42165D01*
X53282Y-42224D01*
X53211Y-42294D01*
X53159Y-42346D01*
X53097Y-42409D01*
X53058Y-42452D01*
X53036Y-42479D01*
X53029Y-42495D01*
X53030Y-42506D01*
X53045Y-42529D01*
X53078Y-42579D01*
X53124Y-42647D01*
X53179Y-42726D01*
X53224Y-42792D01*
X53273Y-42868D01*
X53304Y-42922D01*
X53315Y-42948D01*
X53312Y-42959D01*
X53297Y-43003D01*
X53270Y-43069D01*
X53236Y-43148D01*
X53158Y-43326D01*
X53042Y-43348D01*
X52971Y-43362D01*
X52873Y-43381D01*
X52778Y-43399D01*
X52631Y-43428D01*
X52625Y-43970D01*
X52648Y-43979D01*
X52670Y-43985D01*
X52725Y-43997D01*
X52803Y-44013D01*
X52895Y-44030D01*
X52973Y-44045D01*
X53052Y-44060D01*
X53109Y-44071D01*
X53134Y-44076D01*
X53140Y-44085D01*
X53160Y-44123D01*
X53188Y-44184D01*
X53220Y-44257D01*
X53251Y-44333D01*
X53279Y-44403D01*
X53298Y-44456D01*
X53306Y-44484D01*
X53295Y-44505D01*
X53265Y-44551D01*
X53221Y-44617D01*
X53168Y-44696D01*
X53114Y-44774D01*
X53069Y-44841D01*
X53037Y-44890D01*
X53024Y-44912D01*
X53030Y-44927D01*
X53062Y-44965D01*
X53121Y-45026D01*
X53209Y-45113D01*
X53224Y-45127D01*
X53294Y-45195D01*
X53353Y-45249D01*
X53394Y-45286D01*
X53413Y-45299D01*
M02*
