%FSLAX36Y36*%
G04 Gerber Fmt 3.6, Leading zero omitted, Abs format (unit inch)*
G04 Created by KiCad (PCBNEW (2014-jul-16 BZR unknown)-product) date Sun 19 Oct 2014 05:14:07 PM PDT*
%MOIN*%
G01*
G04 APERTURE LIST*
%ADD10C,0.003937*%
%ADD11C,0.008000*%
%ADD12C,0.010000*%
%ADD13C,0.005906*%
%ADD14C,0.015000*%
%ADD15C,0.009850*%
%ADD16C,0.009900*%
G04 APERTURE END LIST*
D10*
D11*
X5575000Y-4225000D02*
X5625000Y-4275000D01*
X5550000Y-5225000D02*
X5525000Y-5250000D01*
X5550000Y-5150000D02*
X5550000Y-5225000D01*
X5575000Y-5125000D02*
X5550000Y-5150000D01*
D12*
X5430714Y-4196429D02*
X5427857Y-4199286D01*
X5419286Y-4202143D01*
X5413571Y-4202143D01*
X5405000Y-4199286D01*
X5399286Y-4193571D01*
X5396429Y-4187857D01*
X5393571Y-4176429D01*
X5393571Y-4167857D01*
X5396429Y-4156429D01*
X5399286Y-4150714D01*
X5405000Y-4145000D01*
X5413571Y-4142143D01*
X5419286Y-4142143D01*
X5427857Y-4145000D01*
X5430714Y-4147857D01*
X5456429Y-4202143D02*
X5456429Y-4142143D01*
X5456429Y-4170714D02*
X5490714Y-4170714D01*
X5490714Y-4202143D02*
X5490714Y-4142143D01*
X5519286Y-4202143D02*
X5519286Y-4142143D01*
X5553571Y-4202143D01*
X5553571Y-4142143D01*
X5493571Y-5352143D02*
X5493571Y-5292143D01*
X5522143Y-5352143D02*
X5522143Y-5292143D01*
X5556429Y-5352143D01*
X5556429Y-5292143D01*
X4040714Y-4321429D02*
X4037857Y-4324286D01*
X4029286Y-4327143D01*
X4023571Y-4327143D01*
X4015000Y-4324286D01*
X4009286Y-4318571D01*
X4006429Y-4312857D01*
X4003571Y-4301429D01*
X4003571Y-4292857D01*
X4006429Y-4281429D01*
X4009286Y-4275714D01*
X4015000Y-4270000D01*
X4023571Y-4267143D01*
X4029286Y-4267143D01*
X4037857Y-4270000D01*
X4040714Y-4272857D01*
X4066429Y-4327143D02*
X4066429Y-4267143D01*
X4066429Y-4295714D02*
X4100714Y-4295714D01*
X4100714Y-4327143D02*
X4100714Y-4267143D01*
X4126429Y-4310000D02*
X4155000Y-4310000D01*
X4120714Y-4327143D02*
X4140714Y-4267143D01*
X4160714Y-4327143D01*
X4180714Y-4327143D02*
X4180714Y-4267143D01*
X4209286Y-4327143D02*
X4209286Y-4267143D01*
X4243571Y-4327143D01*
X4243571Y-4267143D01*
X4059286Y-5452143D02*
X4059286Y-5392143D01*
X4087857Y-5452143D02*
X4087857Y-5392143D01*
X4122143Y-5452143D01*
X4122143Y-5392143D01*
X4150714Y-5452143D02*
X4150714Y-5392143D01*
X4173571Y-5392143D01*
X4179286Y-5395000D01*
X4182143Y-5397857D01*
X4185000Y-5403571D01*
X4185000Y-5412143D01*
X4182143Y-5417857D01*
X4179286Y-5420714D01*
X4173571Y-5423571D01*
X4150714Y-5423571D01*
X4210714Y-5392143D02*
X4210714Y-5440714D01*
X4213571Y-5446429D01*
X4216429Y-5449286D01*
X4222143Y-5452143D01*
X4233571Y-5452143D01*
X4239286Y-5449286D01*
X4242143Y-5446429D01*
X4245000Y-5440714D01*
X4245000Y-5392143D01*
X4265000Y-5392143D02*
X4299286Y-5392143D01*
X4282143Y-5452143D02*
X4282143Y-5392143D01*
D11*
X3937008Y-5905512D02*
X3937008Y-3937008D01*
X5905512Y-5905512D02*
X3937008Y-5905512D01*
X5905512Y-3937008D02*
X5905512Y-5905512D01*
X3937008Y-3937008D02*
X5905512Y-3937008D01*
X5132381Y-4263095D02*
X5155238Y-4263095D01*
X5143810Y-4303095D02*
X5143810Y-4263095D01*
X5183810Y-4301190D02*
X5180000Y-4303095D01*
X5172381Y-4303095D01*
X5168571Y-4301190D01*
X5166667Y-4297381D01*
X5166667Y-4282143D01*
X5168571Y-4278333D01*
X5172381Y-4276429D01*
X5180000Y-4276429D01*
X5183810Y-4278333D01*
X5185714Y-4282143D01*
X5185714Y-4285952D01*
X5166667Y-4289762D01*
X5202857Y-4303095D02*
X5202857Y-4276429D01*
X5202857Y-4284048D02*
X5204762Y-4280238D01*
X5206667Y-4278333D01*
X5210476Y-4276429D01*
X5214286Y-4276429D01*
X5227619Y-4303095D02*
X5227619Y-4276429D01*
X5227619Y-4280238D02*
X5229524Y-4278333D01*
X5233333Y-4276429D01*
X5239048Y-4276429D01*
X5242857Y-4278333D01*
X5244762Y-4282143D01*
X5244762Y-4303095D01*
X5244762Y-4282143D02*
X5246667Y-4278333D01*
X5250476Y-4276429D01*
X5256190Y-4276429D01*
X5260000Y-4278333D01*
X5261905Y-4282143D01*
X5261905Y-4303095D01*
X5089524Y-4098095D02*
X5097143Y-4098095D01*
X5100952Y-4100000D01*
X5104762Y-4103810D01*
X5106667Y-4111429D01*
X5106667Y-4124762D01*
X5104762Y-4132381D01*
X5100952Y-4136190D01*
X5097143Y-4138095D01*
X5089524Y-4138095D01*
X5085714Y-4136190D01*
X5081905Y-4132381D01*
X5080000Y-4124762D01*
X5080000Y-4111429D01*
X5081905Y-4103810D01*
X5085714Y-4100000D01*
X5089524Y-4098095D01*
X5123810Y-4138095D02*
X5123810Y-4098095D01*
X5146667Y-4138095D01*
X5146667Y-4098095D01*
X5234286Y-4098095D02*
X5241905Y-4098095D01*
X5245714Y-4100000D01*
X5249524Y-4103810D01*
X5251429Y-4111429D01*
X5251429Y-4124762D01*
X5249524Y-4132381D01*
X5245714Y-4136190D01*
X5241905Y-4138095D01*
X5234286Y-4138095D01*
X5230476Y-4136190D01*
X5226667Y-4132381D01*
X5224762Y-4124762D01*
X5224762Y-4111429D01*
X5226667Y-4103810D01*
X5230476Y-4100000D01*
X5234286Y-4098095D01*
X5281905Y-4117143D02*
X5268571Y-4117143D01*
X5268571Y-4138095D02*
X5268571Y-4098095D01*
X5287619Y-4098095D01*
X5316190Y-4117143D02*
X5302857Y-4117143D01*
X5302857Y-4138095D02*
X5302857Y-4098095D01*
X5321905Y-4098095D01*
D12*
X5235714Y-5302143D02*
X5235714Y-5242143D01*
X5255714Y-5285000D01*
X5275714Y-5242143D01*
X5275714Y-5302143D01*
X5304286Y-5302143D02*
X5304286Y-5242143D01*
X5327143Y-5242143D01*
X5332857Y-5245000D01*
X5335714Y-5247857D01*
X5338571Y-5253571D01*
X5338571Y-5262143D01*
X5335714Y-5267857D01*
X5332857Y-5270714D01*
X5327143Y-5273571D01*
X5304286Y-5273571D01*
X5358571Y-5242143D02*
X5372857Y-5302143D01*
X5384286Y-5259286D01*
X5395714Y-5302143D01*
X5410000Y-5242143D01*
X5467143Y-5302143D02*
X5447143Y-5273571D01*
X5432857Y-5302143D02*
X5432857Y-5242143D01*
X5455714Y-5242143D01*
X5461429Y-5245000D01*
X5464286Y-5247857D01*
X5467143Y-5253571D01*
X5467143Y-5262143D01*
X5464286Y-5267857D01*
X5461429Y-5270714D01*
X5455714Y-5273571D01*
X5432857Y-5273571D01*
X4058144Y-4909033D02*
X4029573Y-4909033D01*
X4029573Y-4849033D01*
X4078144Y-4909033D02*
X4078144Y-4849033D01*
X4101001Y-4849033D01*
X4106715Y-4851890D01*
X4109573Y-4854747D01*
X4112430Y-4860461D01*
X4112430Y-4869033D01*
X4109573Y-4874747D01*
X4106715Y-4877604D01*
X4101001Y-4880461D01*
X4078144Y-4880461D01*
X4132430Y-4849033D02*
X4146715Y-4909033D01*
X4158144Y-4866175D01*
X4169573Y-4909033D01*
X4183858Y-4849033D01*
X4241001Y-4909033D02*
X4221001Y-4880461D01*
X4206715Y-4909033D02*
X4206715Y-4849033D01*
X4229573Y-4849033D01*
X4235287Y-4851890D01*
X4238144Y-4854747D01*
X4241001Y-4860461D01*
X4241001Y-4869033D01*
X4238144Y-4874747D01*
X4235287Y-4877604D01*
X4229573Y-4880461D01*
X4206715Y-4880461D01*
X5425000Y-5423714D02*
X5445000Y-5423714D01*
X5453571Y-5455143D02*
X5425000Y-5455143D01*
X5425000Y-5395143D01*
X5453571Y-5395143D01*
X5479286Y-5432286D02*
X5525000Y-5432286D01*
X5386429Y-5546286D02*
X5395000Y-5549143D01*
X5409286Y-5549143D01*
X5415000Y-5546286D01*
X5417857Y-5543429D01*
X5420714Y-5537714D01*
X5420714Y-5532000D01*
X5417857Y-5526286D01*
X5415000Y-5523429D01*
X5409286Y-5520571D01*
X5397857Y-5517714D01*
X5392143Y-5514857D01*
X5389286Y-5512000D01*
X5386429Y-5506286D01*
X5386429Y-5500571D01*
X5389286Y-5494857D01*
X5392143Y-5492000D01*
X5397857Y-5489143D01*
X5412143Y-5489143D01*
X5420714Y-5492000D01*
X5437857Y-5509143D02*
X5460714Y-5509143D01*
X5446429Y-5489143D02*
X5446429Y-5540571D01*
X5449286Y-5546286D01*
X5455000Y-5549143D01*
X5460714Y-5549143D01*
X5489286Y-5549143D02*
X5483571Y-5546286D01*
X5480714Y-5543429D01*
X5477857Y-5537714D01*
X5477857Y-5520571D01*
X5480714Y-5514857D01*
X5483571Y-5512000D01*
X5489286Y-5509143D01*
X5497857Y-5509143D01*
X5503571Y-5512000D01*
X5506429Y-5514857D01*
X5509286Y-5520571D01*
X5509286Y-5537714D01*
X5506429Y-5543429D01*
X5503571Y-5546286D01*
X5497857Y-5549143D01*
X5489286Y-5549143D01*
X5535000Y-5509143D02*
X5535000Y-5569143D01*
X5535000Y-5512000D02*
X5540714Y-5509143D01*
X5552143Y-5509143D01*
X5557857Y-5512000D01*
X5560714Y-5514857D01*
X5563571Y-5520571D01*
X5563571Y-5537714D01*
X5560714Y-5543429D01*
X5557857Y-5546286D01*
X5552143Y-5549143D01*
X5540714Y-5549143D01*
X5535000Y-5546286D01*
X5879156Y-4256254D02*
X5833442Y-4256254D01*
X5583881Y-5083026D02*
X5538166Y-5083026D01*
X5561024Y-5105883D02*
X5561024Y-5060169D01*
X4009078Y-5378301D02*
X3963363Y-5378301D01*
X3989393Y-4915703D02*
X3943678Y-4915703D01*
X3966535Y-4938560D02*
X3966535Y-4892846D01*
X3999235Y-4364522D02*
X3953521Y-4364522D01*
X3976378Y-4387379D02*
X3976378Y-4341665D01*
X3999235Y-4827120D02*
X3953521Y-4827120D01*
D11*
X4244048Y-5597619D02*
X4227381Y-5573810D01*
X4215476Y-5597619D02*
X4215476Y-5547619D01*
X4234524Y-5547619D01*
X4239286Y-5550000D01*
X4241667Y-5552381D01*
X4244048Y-5557143D01*
X4244048Y-5564286D01*
X4241667Y-5569048D01*
X4239286Y-5571429D01*
X4234524Y-5573810D01*
X4215476Y-5573810D01*
X4284524Y-5595238D02*
X4279762Y-5597619D01*
X4270238Y-5597619D01*
X4265476Y-5595238D01*
X4263095Y-5590476D01*
X4263095Y-5571429D01*
X4265476Y-5566667D01*
X4270238Y-5564286D01*
X4279762Y-5564286D01*
X4284524Y-5566667D01*
X4286905Y-5571429D01*
X4286905Y-5576190D01*
X4263095Y-5580952D01*
X4303571Y-5564286D02*
X4315476Y-5597619D01*
X4327381Y-5564286D01*
X4346429Y-5592857D02*
X4348810Y-5595238D01*
X4346429Y-5597619D01*
X4344048Y-5595238D01*
X4346429Y-5592857D01*
X4346429Y-5597619D01*
X4425000Y-5571429D02*
X4432143Y-5573810D01*
X4434524Y-5576190D01*
X4436905Y-5580952D01*
X4436905Y-5588095D01*
X4434524Y-5592857D01*
X4432143Y-5595238D01*
X4427381Y-5597619D01*
X4408333Y-5597619D01*
X4408333Y-5547619D01*
X4425000Y-5547619D01*
X4429762Y-5550000D01*
X4432143Y-5552381D01*
X4434524Y-5557143D01*
X4434524Y-5561905D01*
X4432143Y-5566667D01*
X4429762Y-5569048D01*
X4425000Y-5571429D01*
X4408333Y-5571429D01*
X5423810Y-5806190D02*
X5439048Y-5806190D01*
X5446667Y-5810000D01*
X5454286Y-5817619D01*
X5458095Y-5832857D01*
X5458095Y-5859524D01*
X5454286Y-5874762D01*
X5446667Y-5882381D01*
X5439048Y-5886190D01*
X5423810Y-5886190D01*
X5416190Y-5882381D01*
X5408571Y-5874762D01*
X5404762Y-5859524D01*
X5404762Y-5832857D01*
X5408571Y-5817619D01*
X5416190Y-5810000D01*
X5423810Y-5806190D01*
X5519048Y-5844286D02*
X5492381Y-5844286D01*
X5492381Y-5886190D02*
X5492381Y-5806190D01*
X5530476Y-5806190D01*
X5587619Y-5844286D02*
X5560952Y-5844286D01*
X5560952Y-5886190D02*
X5560952Y-5806190D01*
X5599048Y-5806190D01*
X4325476Y-5806190D02*
X4340714Y-5806190D01*
X4348333Y-5810000D01*
X4355952Y-5817619D01*
X4359762Y-5832857D01*
X4359762Y-5859524D01*
X4355952Y-5874762D01*
X4348333Y-5882381D01*
X4340714Y-5886190D01*
X4325476Y-5886190D01*
X4317857Y-5882381D01*
X4310238Y-5874762D01*
X4306429Y-5859524D01*
X4306429Y-5832857D01*
X4310238Y-5817619D01*
X4317857Y-5810000D01*
X4325476Y-5806190D01*
X4394048Y-5886190D02*
X4394048Y-5806190D01*
X4439762Y-5886190D01*
X4439762Y-5806190D01*
X4005952Y-5496429D02*
X4013095Y-5498810D01*
X4015476Y-5501190D01*
X4017857Y-5505952D01*
X4017857Y-5513095D01*
X4015476Y-5517857D01*
X4013095Y-5520238D01*
X4008333Y-5522619D01*
X3989286Y-5522619D01*
X3989286Y-5472619D01*
X4005952Y-5472619D01*
X4010714Y-5475000D01*
X4013095Y-5477381D01*
X4015476Y-5482143D01*
X4015476Y-5486905D01*
X4013095Y-5491667D01*
X4010714Y-5494048D01*
X4005952Y-5496429D01*
X3989286Y-5496429D01*
X4060714Y-5489286D02*
X4060714Y-5522619D01*
X4039286Y-5489286D02*
X4039286Y-5515476D01*
X4041667Y-5520238D01*
X4046429Y-5522619D01*
X4053571Y-5522619D01*
X4058333Y-5520238D01*
X4060714Y-5517857D01*
X4082143Y-5520238D02*
X4086905Y-5522619D01*
X4096429Y-5522619D01*
X4101191Y-5520238D01*
X4103571Y-5515476D01*
X4103571Y-5513095D01*
X4101191Y-5508333D01*
X4096429Y-5505952D01*
X4089286Y-5505952D01*
X4084524Y-5503571D01*
X4082143Y-5498810D01*
X4082143Y-5496429D01*
X4084524Y-5491667D01*
X4089286Y-5489286D01*
X4096429Y-5489286D01*
X4101191Y-5491667D01*
X4113095Y-5527381D02*
X4151191Y-5527381D01*
X4163095Y-5522619D02*
X4163095Y-5472619D01*
X4182143Y-5472619D01*
X4186905Y-5475000D01*
X4189286Y-5477381D01*
X4191667Y-5482143D01*
X4191667Y-5489286D01*
X4189286Y-5494048D01*
X4186905Y-5496429D01*
X4182143Y-5498810D01*
X4163095Y-5498810D01*
X4220238Y-5522619D02*
X4215476Y-5520238D01*
X4213095Y-5517857D01*
X4210714Y-5513095D01*
X4210714Y-5498810D01*
X4213095Y-5494048D01*
X4215476Y-5491667D01*
X4220238Y-5489286D01*
X4227381Y-5489286D01*
X4232143Y-5491667D01*
X4234524Y-5494048D01*
X4236905Y-5498810D01*
X4236905Y-5513095D01*
X4234524Y-5517857D01*
X4232143Y-5520238D01*
X4227381Y-5522619D01*
X4220238Y-5522619D01*
X4253571Y-5489286D02*
X4263095Y-5522619D01*
X4272619Y-5498810D01*
X4282143Y-5522619D01*
X4291667Y-5489286D01*
X4329762Y-5520238D02*
X4325000Y-5522619D01*
X4315476Y-5522619D01*
X4310714Y-5520238D01*
X4308333Y-5515476D01*
X4308333Y-5496429D01*
X4310714Y-5491667D01*
X4315476Y-5489286D01*
X4325000Y-5489286D01*
X4329762Y-5491667D01*
X4332143Y-5496429D01*
X4332143Y-5501190D01*
X4308333Y-5505952D01*
X4353571Y-5522619D02*
X4353571Y-5489286D01*
X4353571Y-5498810D02*
X4355952Y-5494048D01*
X4358333Y-5491667D01*
X4363095Y-5489286D01*
X4367857Y-5489286D01*
D12*
X5150000Y-4250000D02*
X5350000Y-4250000D01*
X5350000Y-4250000D02*
X5350000Y-4150000D01*
X5350000Y-4150000D02*
X5150000Y-4150000D01*
X5050000Y-4150000D02*
X5150000Y-4150000D01*
X5150000Y-4150000D02*
X5150000Y-4250000D01*
X5050000Y-4150000D02*
X5050000Y-4250000D01*
X5050000Y-4250000D02*
X5150000Y-4250000D01*
D13*
X4701260Y-4721260D02*
X4731260Y-4701260D01*
X4701260Y-4721260D02*
X4731260Y-4741260D01*
D12*
X4731260Y-5011260D02*
X4751260Y-5011260D01*
X4751260Y-5011260D02*
X4751260Y-4831260D01*
X4751260Y-4831260D02*
X4731260Y-4831260D01*
X5111260Y-4521260D02*
X5111260Y-5321260D01*
X5111260Y-5321260D02*
X4731260Y-5321260D01*
X4731260Y-5321260D02*
X4731260Y-4521260D01*
X4731260Y-4521260D02*
X5111260Y-4521260D01*
D11*
X5893701Y-5157480D02*
X5598425Y-5157480D01*
X5598425Y-5157480D02*
X5598425Y-5551181D01*
X5598425Y-5551181D02*
X5893701Y-5551181D01*
X5893701Y-5551181D02*
X5893701Y-5157480D01*
X5893701Y-4724409D02*
X5598425Y-4724409D01*
X5598425Y-4724409D02*
X5598425Y-5118110D01*
X5598425Y-5118110D02*
X5893701Y-5118110D01*
X5893701Y-5118110D02*
X5893701Y-4724409D01*
X5893701Y-4291339D02*
X5598425Y-4291339D01*
X5598425Y-4291339D02*
X5598425Y-4685039D01*
X5598425Y-4685039D02*
X5893701Y-4685039D01*
X5893701Y-4685039D02*
X5893701Y-4291339D01*
X3948819Y-5354331D02*
X4244094Y-5354331D01*
X4244094Y-5354331D02*
X4244094Y-4960630D01*
X4244094Y-4960630D02*
X3948819Y-4960630D01*
X3948819Y-4960630D02*
X3948819Y-5354331D01*
X3948819Y-4803150D02*
X4244094Y-4803150D01*
X4244094Y-4803150D02*
X4244094Y-4409449D01*
X4244094Y-4409449D02*
X3948819Y-4409449D01*
X3948819Y-4409449D02*
X3948819Y-4803150D01*
D14*
X5254331Y-4973110D02*
X5254331Y-5028110D01*
X5354331Y-4973110D02*
X5354331Y-5028110D01*
X5454331Y-4973110D02*
X5454331Y-5028110D01*
X5453326Y-4458110D02*
G75*
G03X5453326Y-4458110I-98995J0D01*
G74*
G01*
X5564331Y-4638110D02*
X5564331Y-4323110D01*
X5564331Y-4323110D02*
X5144331Y-4323110D01*
X5144331Y-4323110D02*
X5144331Y-4638110D01*
X5564331Y-4973110D02*
X5564331Y-4638110D01*
X5564331Y-4638110D02*
X5144331Y-4638110D01*
X5144331Y-4638110D02*
X5144331Y-4973110D01*
X5354331Y-4973110D02*
X5144331Y-4973110D01*
X5354331Y-4973110D02*
X5564331Y-4973110D01*
X4388189Y-4973110D02*
X4388189Y-5028110D01*
X4488189Y-4973110D02*
X4488189Y-5028110D01*
X4588189Y-4973110D02*
X4588189Y-5028110D01*
X4587184Y-4458110D02*
G75*
G03X4587184Y-4458110I-98995J0D01*
G74*
G01*
X4698189Y-4638110D02*
X4698189Y-4323110D01*
X4698189Y-4323110D02*
X4278189Y-4323110D01*
X4278189Y-4323110D02*
X4278189Y-4638110D01*
X4698189Y-4973110D02*
X4698189Y-4638110D01*
X4698189Y-4638110D02*
X4278189Y-4638110D01*
X4278189Y-4638110D02*
X4278189Y-4973110D01*
X4488189Y-4973110D02*
X4278189Y-4973110D01*
X4488189Y-4973110D02*
X4698189Y-4973110D01*
D13*
X4925000Y-4325000D02*
X4925000Y-4375000D01*
X4925000Y-4125000D02*
X4925000Y-4075000D01*
X4975000Y-4125000D02*
X4875000Y-4125000D01*
X4875000Y-4125000D02*
X4875000Y-4325000D01*
X4875000Y-4325000D02*
X4975000Y-4325000D01*
X4975000Y-4325000D02*
X4975000Y-4125000D01*
D11*
X5536000Y-3966000D02*
X5064000Y-3966000D01*
X5064000Y-3966000D02*
X5064000Y-4084000D01*
X5064000Y-4084000D02*
X5536000Y-4084000D01*
X5536000Y-4084000D02*
X5536000Y-3966000D01*
X4786000Y-3966000D02*
X4314000Y-3966000D01*
X4314000Y-3966000D02*
X4314000Y-4084000D01*
X4314000Y-4084000D02*
X4786000Y-4084000D01*
X4786000Y-4084000D02*
X4786000Y-3966000D01*
X4471260Y-5354921D02*
X4471260Y-5904921D01*
X4471260Y-5904921D02*
X5371260Y-5904921D01*
X5371260Y-5904921D02*
X5371260Y-5354921D01*
X5371260Y-5354921D02*
X4471260Y-5354921D01*
X4103382Y-4151954D02*
X4103382Y-4111954D01*
X4103382Y-4131001D02*
X4126239Y-4131001D01*
X4126239Y-4151954D02*
X4126239Y-4111954D01*
X4166239Y-4151954D02*
X4143382Y-4151954D01*
X4154811Y-4151954D02*
X4154811Y-4111954D01*
X4151001Y-4117668D01*
X4147192Y-4121477D01*
X4143382Y-4123382D01*
X5678185Y-4151954D02*
X5678185Y-4111954D01*
X5678185Y-4131001D02*
X5701042Y-4131001D01*
X5701042Y-4151954D02*
X5701042Y-4111954D01*
X5718185Y-4115763D02*
X5720090Y-4113858D01*
X5723900Y-4111954D01*
X5733423Y-4111954D01*
X5737233Y-4113858D01*
X5739138Y-4115763D01*
X5741042Y-4119573D01*
X5741042Y-4123382D01*
X5739138Y-4129096D01*
X5716280Y-4151954D01*
X5741042Y-4151954D01*
X4103382Y-5726757D02*
X4103382Y-5686757D01*
X4103382Y-5705804D02*
X4126239Y-5705804D01*
X4126239Y-5726757D02*
X4126239Y-5686757D01*
X4141477Y-5686757D02*
X4166239Y-5686757D01*
X4152906Y-5701995D01*
X4158620Y-5701995D01*
X4162430Y-5703900D01*
X4164334Y-5705804D01*
X4166239Y-5709614D01*
X4166239Y-5719138D01*
X4164334Y-5722947D01*
X4162430Y-5724852D01*
X4158620Y-5726757D01*
X4147192Y-5726757D01*
X4143382Y-5724852D01*
X4141477Y-5722947D01*
X5678185Y-5726757D02*
X5678185Y-5686757D01*
X5678185Y-5705804D02*
X5701042Y-5705804D01*
X5701042Y-5726757D02*
X5701042Y-5686757D01*
X5737233Y-5700090D02*
X5737233Y-5726757D01*
X5727709Y-5684852D02*
X5718185Y-5713423D01*
X5742947Y-5713423D01*
X5061667Y-4278095D02*
X5061667Y-4306667D01*
X5059762Y-4312381D01*
X5055952Y-4316190D01*
X5050238Y-4318095D01*
X5046429Y-4318095D01*
X5101667Y-4318095D02*
X5078810Y-4318095D01*
X5090238Y-4318095D02*
X5090238Y-4278095D01*
X5086429Y-4283810D01*
X5082619Y-4287619D01*
X5078810Y-4289524D01*
X5144524Y-5318095D02*
X5144524Y-5278095D01*
X5167381Y-5318095D01*
X5167381Y-5278095D01*
X5184524Y-5281905D02*
X5186429Y-5280000D01*
X5190238Y-5278095D01*
X5199762Y-5278095D01*
X5203571Y-5280000D01*
X5205476Y-5281905D01*
X5207381Y-5285714D01*
X5207381Y-5289524D01*
X5205476Y-5295238D01*
X5182619Y-5318095D01*
X5207381Y-5318095D01*
X5819524Y-5618095D02*
X5819524Y-5578095D01*
X5842381Y-5618095D01*
X5842381Y-5578095D01*
X5857619Y-5578095D02*
X5882381Y-5578095D01*
X5869048Y-5593333D01*
X5874762Y-5593333D01*
X5878571Y-5595238D01*
X5880476Y-5597143D01*
X5882381Y-5600952D01*
X5882381Y-5610476D01*
X5880476Y-5614286D01*
X5878571Y-5616190D01*
X5874762Y-5618095D01*
X5863333Y-5618095D01*
X5859524Y-5616190D01*
X5857619Y-5614286D01*
X5519524Y-5043095D02*
X5519524Y-5003095D01*
X5542381Y-5043095D01*
X5542381Y-5003095D01*
X5578571Y-5016429D02*
X5578571Y-5043095D01*
X5569048Y-5001190D02*
X5559524Y-5029762D01*
X5584286Y-5029762D01*
X5519524Y-4293095D02*
X5519524Y-4253095D01*
X5542381Y-4293095D01*
X5542381Y-4253095D01*
X5580476Y-4253095D02*
X5561429Y-4253095D01*
X5559524Y-4272143D01*
X5561429Y-4270238D01*
X5565238Y-4268333D01*
X5574762Y-4268333D01*
X5578571Y-4270238D01*
X5580476Y-4272143D01*
X5582381Y-4275952D01*
X5582381Y-4285476D01*
X5580476Y-4289286D01*
X5578571Y-4291190D01*
X5574762Y-4293095D01*
X5565238Y-4293095D01*
X5561429Y-4291190D01*
X5559524Y-4289286D01*
X4269524Y-5343095D02*
X4269524Y-5303095D01*
X4292381Y-5343095D01*
X4292381Y-5303095D01*
X4328571Y-5303095D02*
X4320952Y-5303095D01*
X4317143Y-5305000D01*
X4315238Y-5306905D01*
X4311429Y-5312619D01*
X4309524Y-5320238D01*
X4309524Y-5335476D01*
X4311429Y-5339286D01*
X4313333Y-5341190D01*
X4317143Y-5343095D01*
X4324762Y-5343095D01*
X4328571Y-5341190D01*
X4330476Y-5339286D01*
X4332381Y-5335476D01*
X4332381Y-5325952D01*
X4330476Y-5322143D01*
X4328571Y-5320238D01*
X4324762Y-5318333D01*
X4317143Y-5318333D01*
X4313333Y-5320238D01*
X4311429Y-5322143D01*
X4309524Y-5325952D01*
X4169524Y-4393095D02*
X4169524Y-4353095D01*
X4192381Y-4393095D01*
X4192381Y-4353095D01*
X4207619Y-4353095D02*
X4234286Y-4353095D01*
X4217143Y-4393095D01*
X5421190Y-4296905D02*
X5417381Y-4295000D01*
X5413571Y-4291190D01*
X5407857Y-4285476D01*
X5404048Y-4283571D01*
X5400238Y-4283571D01*
X5402143Y-4293095D02*
X5398333Y-4291190D01*
X5394524Y-4287381D01*
X5392619Y-4279762D01*
X5392619Y-4266429D01*
X5394524Y-4258810D01*
X5398333Y-4255000D01*
X5402143Y-4253095D01*
X5409762Y-4253095D01*
X5413571Y-4255000D01*
X5417381Y-4258810D01*
X5419286Y-4266429D01*
X5419286Y-4279762D01*
X5417381Y-4287381D01*
X5413571Y-4291190D01*
X5409762Y-4293095D01*
X5402143Y-4293095D01*
X5457381Y-4293095D02*
X5434524Y-4293095D01*
X5445952Y-4293095D02*
X5445952Y-4253095D01*
X5442143Y-4258810D01*
X5438333Y-4262619D01*
X5434524Y-4264524D01*
D15*
X5264650Y-4898410D02*
X5260897Y-4896534D01*
X5255269Y-4896534D01*
X5249640Y-4898410D01*
X5245888Y-4902163D01*
X5244012Y-4905915D01*
X5242135Y-4913420D01*
X5242135Y-4919048D01*
X5244012Y-4926553D01*
X5245888Y-4930305D01*
X5249640Y-4934058D01*
X5255269Y-4935934D01*
X5259021Y-4935934D01*
X5264650Y-4934058D01*
X5266526Y-4932182D01*
X5266526Y-4919048D01*
X5259021Y-4919048D01*
D16*
D15*
X5443074Y-4934058D02*
X5448702Y-4935934D01*
X5458083Y-4935934D01*
X5461835Y-4934058D01*
X5463712Y-4932182D01*
X5465588Y-4928429D01*
X5465588Y-4924677D01*
X5463712Y-4920925D01*
X5461835Y-4919048D01*
X5458083Y-4917172D01*
X5450578Y-4915296D01*
X5446826Y-4913420D01*
X5444950Y-4911544D01*
X5443074Y-4907791D01*
X5443074Y-4904039D01*
X5444950Y-4900286D01*
X5446826Y-4898410D01*
X5450578Y-4896534D01*
X5459959Y-4896534D01*
X5465588Y-4898410D01*
D16*
D15*
X5344012Y-4935934D02*
X5344012Y-4896534D01*
X5353393Y-4896534D01*
X5359021Y-4898410D01*
X5362774Y-4902163D01*
X5364650Y-4905915D01*
X5366526Y-4913420D01*
X5366526Y-4919048D01*
X5364650Y-4926553D01*
X5362774Y-4930305D01*
X5359021Y-4934058D01*
X5353393Y-4935934D01*
X5344012Y-4935934D01*
D16*
D11*
X4496190Y-4296905D02*
X4492381Y-4295000D01*
X4488571Y-4291190D01*
X4482857Y-4285476D01*
X4479048Y-4283571D01*
X4475238Y-4283571D01*
X4477143Y-4293095D02*
X4473333Y-4291190D01*
X4469524Y-4287381D01*
X4467619Y-4279762D01*
X4467619Y-4266429D01*
X4469524Y-4258810D01*
X4473333Y-4255000D01*
X4477143Y-4253095D01*
X4484762Y-4253095D01*
X4488571Y-4255000D01*
X4492381Y-4258810D01*
X4494286Y-4266429D01*
X4494286Y-4279762D01*
X4492381Y-4287381D01*
X4488571Y-4291190D01*
X4484762Y-4293095D01*
X4477143Y-4293095D01*
X4509524Y-4256905D02*
X4511429Y-4255000D01*
X4515238Y-4253095D01*
X4524762Y-4253095D01*
X4528571Y-4255000D01*
X4530476Y-4256905D01*
X4532381Y-4260714D01*
X4532381Y-4264524D01*
X4530476Y-4270238D01*
X4507619Y-4293095D01*
X4532381Y-4293095D01*
D15*
X4398508Y-4898410D02*
X4394756Y-4896534D01*
X4389127Y-4896534D01*
X4383499Y-4898410D01*
X4379746Y-4902163D01*
X4377870Y-4905915D01*
X4375994Y-4913420D01*
X4375994Y-4919048D01*
X4377870Y-4926553D01*
X4379746Y-4930305D01*
X4383499Y-4934058D01*
X4389127Y-4935934D01*
X4392879Y-4935934D01*
X4398508Y-4934058D01*
X4400384Y-4932182D01*
X4400384Y-4919048D01*
X4392879Y-4919048D01*
D16*
D15*
X4576932Y-4934058D02*
X4582560Y-4935934D01*
X4591941Y-4935934D01*
X4595694Y-4934058D01*
X4597570Y-4932182D01*
X4599446Y-4928429D01*
X4599446Y-4924677D01*
X4597570Y-4920925D01*
X4595694Y-4919048D01*
X4591941Y-4917172D01*
X4584437Y-4915296D01*
X4580684Y-4913420D01*
X4578808Y-4911544D01*
X4576932Y-4907791D01*
X4576932Y-4904039D01*
X4578808Y-4900286D01*
X4580684Y-4898410D01*
X4584437Y-4896534D01*
X4593818Y-4896534D01*
X4599446Y-4898410D01*
D16*
D15*
X4477870Y-4935934D02*
X4477870Y-4896534D01*
X4487251Y-4896534D01*
X4492879Y-4898410D01*
X4496632Y-4902163D01*
X4498508Y-4905915D01*
X4500384Y-4913420D01*
X4500384Y-4919048D01*
X4498508Y-4926553D01*
X4496632Y-4930305D01*
X4492879Y-4934058D01*
X4487251Y-4935934D01*
X4477870Y-4935934D01*
D16*
D11*
X4818333Y-4193095D02*
X4805000Y-4174048D01*
X4795476Y-4193095D02*
X4795476Y-4153095D01*
X4810714Y-4153095D01*
X4814524Y-4155000D01*
X4816429Y-4156905D01*
X4818333Y-4160714D01*
X4818333Y-4166429D01*
X4816429Y-4170238D01*
X4814524Y-4172143D01*
X4810714Y-4174048D01*
X4795476Y-4174048D01*
X4856429Y-4193095D02*
X4833571Y-4193095D01*
X4845000Y-4193095D02*
X4845000Y-4153095D01*
X4841191Y-4158810D01*
X4837381Y-4162619D01*
X4833571Y-4164524D01*
X5593333Y-3993095D02*
X5580000Y-3974048D01*
X5570476Y-3993095D02*
X5570476Y-3953095D01*
X5585714Y-3953095D01*
X5589524Y-3955000D01*
X5591429Y-3956905D01*
X5593333Y-3960714D01*
X5593333Y-3966429D01*
X5591429Y-3970238D01*
X5589524Y-3972143D01*
X5585714Y-3974048D01*
X5570476Y-3974048D01*
X5608571Y-3956905D02*
X5610476Y-3955000D01*
X5614286Y-3953095D01*
X5623810Y-3953095D01*
X5627619Y-3955000D01*
X5629524Y-3956905D01*
X5631429Y-3960714D01*
X5631429Y-3964524D01*
X5629524Y-3970238D01*
X5606667Y-3993095D01*
X5631429Y-3993095D01*
X4543333Y-4143095D02*
X4530000Y-4124048D01*
X4520476Y-4143095D02*
X4520476Y-4103095D01*
X4535714Y-4103095D01*
X4539524Y-4105000D01*
X4541429Y-4106905D01*
X4543333Y-4110714D01*
X4543333Y-4116429D01*
X4541429Y-4120238D01*
X4539524Y-4122143D01*
X4535714Y-4124048D01*
X4520476Y-4124048D01*
X4556667Y-4103095D02*
X4581429Y-4103095D01*
X4568095Y-4118333D01*
X4573810Y-4118333D01*
X4577619Y-4120238D01*
X4579524Y-4122143D01*
X4581429Y-4125952D01*
X4581429Y-4135476D01*
X4579524Y-4139286D01*
X4577619Y-4141190D01*
X4573810Y-4143095D01*
X4562381Y-4143095D01*
X4558571Y-4141190D01*
X4556667Y-4139286D01*
X4496667Y-5316190D02*
X4502381Y-5318095D01*
X4511905Y-5318095D01*
X4515714Y-5316190D01*
X4517619Y-5314286D01*
X4519524Y-5310476D01*
X4519524Y-5306667D01*
X4517619Y-5302857D01*
X4515714Y-5300952D01*
X4511905Y-5299048D01*
X4504286Y-5297143D01*
X4500476Y-5295238D01*
X4498571Y-5293333D01*
X4496667Y-5289524D01*
X4496667Y-5285714D01*
X4498571Y-5281905D01*
X4500476Y-5280000D01*
X4504286Y-5278095D01*
X4513810Y-5278095D01*
X4519524Y-5280000D01*
X4532857Y-5278095D02*
X4542381Y-5318095D01*
X4550000Y-5289524D01*
X4557619Y-5318095D01*
X4567143Y-5278095D01*
X4603333Y-5318095D02*
X4580476Y-5318095D01*
X4591905Y-5318095D02*
X4591905Y-5278095D01*
X4588095Y-5283810D01*
X4584286Y-5287619D01*
X4580476Y-5289524D01*
M02*
