M48
;DRILL file {kicad (2014-jul-16 BZR unknown)-product} date Wed 01 Oct 2014 08:58:46 PM PDT
;FORMAT={-:-/ absolute / inch / decimal}
FMAT,2
INCH,TZ
T1C0.039
T2C0.040
T3C0.080
T4C0.125
T5C0.150
%
G90
G05
M72
T1
X4.3882Y-5.1181
X4.4882Y-5.1181
X4.5882Y-5.1181
X4.925Y-4.025
X4.925Y-4.425
X5.2543Y-5.1181
X5.3543Y-5.1181
X5.4543Y-5.1181
T2
X4.1142Y-4.5079
X4.1142Y-4.7047
X4.1142Y-5.0591
X4.1142Y-5.2559
X4.4495Y-4.025
X4.6505Y-4.025
X4.8713Y-4.7213
X4.8713Y-4.8213
X4.8713Y-4.9213
X4.8713Y-5.0213
X4.8713Y-5.1213
X4.9713Y-4.7213
X4.9713Y-4.8213
X4.9713Y-4.9213
X4.9713Y-5.0213
X4.9713Y-5.1213
X5.1Y-4.2
X5.1995Y-4.025
X5.2Y-4.2
X5.3Y-4.2
X5.4005Y-4.025
X5.7283Y-4.3898
X5.7283Y-4.5866
X5.7283Y-4.8228
X5.7283Y-5.0197
X5.7283Y-5.2559
X5.7283Y-5.4528
T3
X4.6093Y-5.4599
X4.6093Y-5.7999
X4.9213Y-5.4599
X4.9213Y-5.7999
X5.2333Y-5.4599
X5.2333Y-5.7999
T4
X4.1339Y-4.1339
X4.1339Y-5.7087
X5.7087Y-4.1339
X5.7087Y-5.7087
T5
X4.4882Y-4.4581
X5.3543Y-4.4581
T0
M30
