%FSLAX46Y46*%
G04 Gerber Fmt 4.6, Leading zero omitted, Abs format (unit mm)*
G04 Created by KiCad (PCBNEW (2014-jul-16 BZR unknown)-product) date Wed 01 Oct 2014 08:58:49 PM PDT*
%MOMM*%
G01*
G04 APERTURE LIST*
%ADD10C,0.100000*%
%ADD11R,1.727200X1.727200*%
%ADD12C,1.727200*%
%ADD13R,1.524000X1.524000*%
%ADD14C,1.524000*%
%ADD15C,2.032000*%
%ADD16O,1.699260X3.500120*%
%ADD17R,9.652000X15.748000*%
%ADD18C,1.998980*%
%ADD19C,3.810000*%
G04 APERTURE END LIST*
D10*
D11*
X129540000Y-106680000D03*
D12*
X132080000Y-106680000D03*
X134620000Y-106680000D03*
D13*
X123730000Y-119920000D03*
D14*
X126270000Y-119920000D03*
X123730000Y-122460000D03*
X126270000Y-122460000D03*
X123730000Y-125000000D03*
X126270000Y-125000000D03*
X123730000Y-127540000D03*
X126270000Y-127540000D03*
X123730000Y-130080000D03*
X126270000Y-130080000D03*
D15*
X145500000Y-133500000D03*
X145500000Y-138500000D03*
X145500000Y-122500000D03*
X145500000Y-127500000D03*
X145500000Y-111500000D03*
X145500000Y-116500000D03*
X104500000Y-133500000D03*
X104500000Y-128500000D03*
X104500000Y-119500000D03*
X104500000Y-114500000D03*
D16*
X136000000Y-130000000D03*
X133460000Y-130000000D03*
X138540000Y-130000000D03*
D17*
X136000000Y-118062000D03*
D16*
X114000000Y-130000000D03*
X111460000Y-130000000D03*
X116540000Y-130000000D03*
D17*
X114000000Y-118062000D03*
D18*
X125095000Y-102235000D03*
X125095000Y-112395000D03*
D15*
X137172700Y-102235000D03*
X132067300Y-102235000D03*
X118122700Y-102235000D03*
X113017300Y-102235000D03*
D19*
X125000000Y-147318000D03*
X125000000Y-138682000D03*
X132924800Y-147318000D03*
X117075200Y-138682000D03*
X132924800Y-138682000D03*
X117075200Y-147318000D03*
M02*
