M48
;DRILL file {kicad (2014-jul-16 BZR unknown)-product} date Sun 19 Oct 2014 05:14:04 PM PDT
;FORMAT={2:4/ absolute / inch / suppress leading zeros}
FMAT,2
INCH,TZ
T1C0.039
T2C0.040
T3C0.080
T4C0.125
T5C0.150
%
G90
G05
M72
T1
X43882Y-51181
X44882Y-51181
X45882Y-51181
X49250Y-40250
X49250Y-44250
X52543Y-51181
X53543Y-51181
X54543Y-51181
T2
X41142Y-45079
X41142Y-47047
X41142Y-50591
X41142Y-52559
X44495Y-40250
X46505Y-40250
X48713Y-47213
X48713Y-48213
X48713Y-49213
X48713Y-50213
X48713Y-51213
X49713Y-47213
X49713Y-48213
X49713Y-49213
X49713Y-50213
X49713Y-51213
X51000Y-42000
X51995Y-40250
X52000Y-42000
X53000Y-42000
X54005Y-40250
X57283Y-43898
X57283Y-45866
X57283Y-48228
X57283Y-50197
X57283Y-52559
X57283Y-54528
T3
X46093Y-54599
X46093Y-57999
X49213Y-54599
X49213Y-57999
X52333Y-54599
X52333Y-57999
T4
X41339Y-41339
X41339Y-57087
X57087Y-41339
X57087Y-57087
T5
X44882Y-44581
X53543Y-44581
T0
M30
