%FSLAX36Y36*%
G04 Gerber Fmt 3.6, Leading zero omitted, Abs format (unit inch)*
G04 Created by KiCad (PCBNEW (2014-jul-16 BZR unknown)-product) date Sun 19 Oct 2014 05:14:07 PM PDT*
%MOIN*%
G01*
G04 APERTURE LIST*
%ADD10C,0.003937*%
%ADD11C,0.236220*%
%ADD12R,0.068000X0.068000*%
%ADD13C,0.068000*%
%ADD14R,0.060000X0.060000*%
%ADD15C,0.060000*%
%ADD16C,0.080000*%
%ADD17O,0.066900X0.137800*%
%ADD18R,0.380000X0.620000*%
%ADD19C,0.078700*%
%ADD20C,0.150000*%
%ADD21C,0.040000*%
%ADD22C,0.010000*%
G04 APERTURE END LIST*
D10*
D11*
X4133858Y-4133858D03*
X5708661Y-4133858D03*
X4133858Y-5708661D03*
X5708661Y-5708661D03*
D12*
X5100000Y-4200000D03*
D13*
X5200000Y-4200000D03*
X5300000Y-4200000D03*
D14*
X4871260Y-4721260D03*
D15*
X4971260Y-4721260D03*
X4871260Y-4821260D03*
X4971260Y-4821260D03*
X4871260Y-4921260D03*
X4971260Y-4921260D03*
X4871260Y-5021260D03*
X4971260Y-5021260D03*
X4871260Y-5121260D03*
X4971260Y-5121260D03*
D16*
X5728346Y-5255906D03*
X5728346Y-5452756D03*
X5728346Y-4822835D03*
X5728346Y-5019685D03*
X5728346Y-4389764D03*
X5728346Y-4586614D03*
X4114173Y-5255906D03*
X4114173Y-5059055D03*
X4114173Y-4704724D03*
X4114173Y-4507874D03*
D17*
X5354331Y-5118110D03*
X5254331Y-5118110D03*
X5454331Y-5118110D03*
D18*
X5354331Y-4648110D03*
D17*
X4488189Y-5118110D03*
X4388189Y-5118110D03*
X4588189Y-5118110D03*
D18*
X4488189Y-4648110D03*
D19*
X4925000Y-4025000D03*
X4925000Y-4425000D03*
D16*
X5400500Y-4025000D03*
X5199500Y-4025000D03*
X4650500Y-4025000D03*
X4449500Y-4025000D03*
D20*
X4921260Y-5799921D03*
X4921260Y-5459921D03*
X5233260Y-5799921D03*
X4609260Y-5459921D03*
X5233260Y-5459921D03*
X4609260Y-5799921D03*
D21*
X4488189Y-5118110D02*
X4488189Y-5161811D01*
X4488189Y-5161811D02*
X4425000Y-5225000D01*
X4280118Y-5225000D02*
X4114173Y-5059055D01*
X4425000Y-5225000D02*
X4280118Y-5225000D01*
X4971260Y-4721260D02*
X4871260Y-4721260D01*
X4114173Y-4507874D02*
X4114173Y-4410827D01*
X4800000Y-4650000D02*
X4871260Y-4721260D01*
X4800000Y-4350000D02*
X4800000Y-4650000D01*
X4114173Y-4410827D02*
X4275000Y-4250000D01*
X4700000Y-4250000D02*
X4800000Y-4350000D01*
X4275000Y-4250000D02*
X4700000Y-4250000D01*
X4388189Y-5118110D02*
X4388189Y-5061811D01*
X4388189Y-5061811D02*
X4450000Y-5000000D01*
X4450000Y-5000000D02*
X4750000Y-5000000D01*
X4750000Y-5000000D02*
X4800000Y-4950000D01*
X4800000Y-4950000D02*
X4800000Y-4892520D01*
X4800000Y-4892520D02*
X4871260Y-4821260D01*
X4133858Y-4133858D02*
X4808858Y-4133858D01*
X5003740Y-4821260D02*
X4971260Y-4821260D01*
X5075000Y-4750000D02*
X5003740Y-4821260D01*
X5075000Y-4400000D02*
X5075000Y-4750000D01*
X4808858Y-4133858D02*
X5075000Y-4400000D01*
X4971260Y-4821260D02*
X4871260Y-4821260D01*
X5708661Y-5708661D02*
X5860000Y-5557323D01*
X5860000Y-4285197D02*
X5708661Y-4133858D01*
X5860000Y-5557323D02*
X5860000Y-4285197D01*
X4114173Y-4704724D02*
X4025000Y-4615551D01*
X4025000Y-4242717D02*
X4133858Y-4133858D01*
X4025000Y-4615551D02*
X4025000Y-4242717D01*
X4114173Y-5255906D02*
X4025000Y-5166732D01*
X4025000Y-4793898D02*
X4114173Y-4704724D01*
X4025000Y-5166732D02*
X4025000Y-4793898D01*
X4133858Y-5708661D02*
X4025000Y-5599803D01*
X4025000Y-5345079D02*
X4114173Y-5255906D01*
X4025000Y-5599803D02*
X4025000Y-5345079D01*
X4133858Y-5708661D02*
X4341339Y-5708661D01*
X5483661Y-5708661D02*
X5708661Y-5708661D01*
X5450000Y-5675000D02*
X5483661Y-5708661D01*
X4375000Y-5675000D02*
X5450000Y-5675000D01*
X4341339Y-5708661D02*
X4375000Y-5675000D01*
D22*
X4925000Y-4025000D02*
X5025000Y-4125000D01*
X5125000Y-4125000D02*
X5200000Y-4200000D01*
X5025000Y-4125000D02*
X5125000Y-4125000D01*
D21*
X4971260Y-5021260D02*
X5229921Y-5021260D01*
X5229921Y-5021260D02*
X5254331Y-5045669D01*
X4971260Y-5021260D02*
X4871260Y-5021260D01*
X5254331Y-5118110D02*
X5254331Y-5045669D01*
X5254331Y-5045669D02*
X5300000Y-5000000D01*
X5675000Y-4876181D02*
X5728346Y-4822835D01*
X5675000Y-4925000D02*
X5675000Y-4876181D01*
X5600000Y-5000000D02*
X5675000Y-4925000D01*
X5300000Y-5000000D02*
X5600000Y-5000000D01*
X4921260Y-5459921D02*
X4921260Y-5278740D01*
X4971260Y-5228740D02*
X4971260Y-5121260D01*
X4921260Y-5278740D02*
X4971260Y-5228740D01*
X5728346Y-4586614D02*
X5800000Y-4658268D01*
X5046260Y-5121260D02*
X4971260Y-5121260D01*
X5175000Y-5250000D02*
X5046260Y-5121260D01*
X5250000Y-5250000D02*
X5175000Y-5250000D01*
X5350000Y-5350000D02*
X5250000Y-5250000D01*
X5750000Y-5350000D02*
X5350000Y-5350000D01*
X5800000Y-5300000D02*
X5750000Y-5350000D01*
X5800000Y-4658268D02*
X5800000Y-5300000D01*
X4971260Y-5121260D02*
X4871260Y-5121260D01*
X5728346Y-5255906D02*
X5405906Y-5255906D01*
X5354331Y-5204331D02*
X5354331Y-5118110D01*
X5405906Y-5255906D02*
X5354331Y-5204331D01*
M02*
