%FSLAX46Y46*%
G04 Gerber Fmt 4.6, Leading zero omitted, Abs format (unit mm)*
G04 Created by KiCad (PCBNEW (2014-jul-16 BZR unknown)-product) date Wed 01 Oct 2014 08:58:49 PM PDT*
%MOMM*%
G01*
G04 APERTURE LIST*
%ADD10C,0.100000*%
%ADD11C,0.203200*%
%ADD12C,0.254000*%
%ADD13C,0.150000*%
%ADD14C,0.381000*%
%ADD15C,0.250190*%
%ADD16C,0.251460*%
G04 APERTURE END LIST*
D10*
D11*
X141605000Y-107315000D02*
X142875000Y-108585000D01*
X140970000Y-132715000D02*
X140335000Y-133350000D01*
X140970000Y-130810000D02*
X140970000Y-132715000D01*
X141605000Y-130175000D02*
X140970000Y-130810000D01*
D12*
X137940143Y-106589286D02*
X137867572Y-106661857D01*
X137649858Y-106734429D01*
X137504715Y-106734429D01*
X137287000Y-106661857D01*
X137141858Y-106516714D01*
X137069286Y-106371571D01*
X136996715Y-106081286D01*
X136996715Y-105863571D01*
X137069286Y-105573286D01*
X137141858Y-105428143D01*
X137287000Y-105283000D01*
X137504715Y-105210429D01*
X137649858Y-105210429D01*
X137867572Y-105283000D01*
X137940143Y-105355571D01*
X138593286Y-106734429D02*
X138593286Y-105210429D01*
X138593286Y-105936143D02*
X139464143Y-105936143D01*
X139464143Y-106734429D02*
X139464143Y-105210429D01*
X140189857Y-106734429D02*
X140189857Y-105210429D01*
X141060714Y-106734429D01*
X141060714Y-105210429D01*
X139536715Y-135944429D02*
X139536715Y-134420429D01*
X140262429Y-135944429D02*
X140262429Y-134420429D01*
X141133286Y-135944429D01*
X141133286Y-134420429D01*
X102634143Y-109764286D02*
X102561572Y-109836857D01*
X102343858Y-109909429D01*
X102198715Y-109909429D01*
X101981000Y-109836857D01*
X101835858Y-109691714D01*
X101763286Y-109546571D01*
X101690715Y-109256286D01*
X101690715Y-109038571D01*
X101763286Y-108748286D01*
X101835858Y-108603143D01*
X101981000Y-108458000D01*
X102198715Y-108385429D01*
X102343858Y-108385429D01*
X102561572Y-108458000D01*
X102634143Y-108530571D01*
X103287286Y-109909429D02*
X103287286Y-108385429D01*
X103287286Y-109111143D02*
X104158143Y-109111143D01*
X104158143Y-109909429D02*
X104158143Y-108385429D01*
X104811286Y-109474000D02*
X105537000Y-109474000D01*
X104666143Y-109909429D02*
X105174143Y-108385429D01*
X105682143Y-109909429D01*
X106190143Y-109909429D02*
X106190143Y-108385429D01*
X106915857Y-109909429D02*
X106915857Y-108385429D01*
X107786714Y-109909429D01*
X107786714Y-108385429D01*
X103105858Y-138484429D02*
X103105858Y-136960429D01*
X103831572Y-138484429D02*
X103831572Y-136960429D01*
X104702429Y-138484429D01*
X104702429Y-136960429D01*
X105428143Y-138484429D02*
X105428143Y-136960429D01*
X106008715Y-136960429D01*
X106153857Y-137033000D01*
X106226429Y-137105571D01*
X106299000Y-137250714D01*
X106299000Y-137468429D01*
X106226429Y-137613571D01*
X106153857Y-137686143D01*
X106008715Y-137758714D01*
X105428143Y-137758714D01*
X106952143Y-136960429D02*
X106952143Y-138194143D01*
X107024715Y-138339286D01*
X107097286Y-138411857D01*
X107242429Y-138484429D01*
X107532715Y-138484429D01*
X107677857Y-138411857D01*
X107750429Y-138339286D01*
X107823000Y-138194143D01*
X107823000Y-136960429D01*
X108331000Y-136960429D02*
X109201857Y-136960429D01*
X108766428Y-138484429D02*
X108766428Y-136960429D01*
D11*
X100000000Y-150000000D02*
X100000000Y-100000000D01*
X150000000Y-150000000D02*
X100000000Y-150000000D01*
X150000000Y-100000000D02*
X150000000Y-150000000D01*
X100000000Y-100000000D02*
X150000000Y-100000000D01*
X130362477Y-108282619D02*
X130943048Y-108282619D01*
X130652763Y-109298619D02*
X130652763Y-108282619D01*
X131668762Y-109250238D02*
X131572000Y-109298619D01*
X131378477Y-109298619D01*
X131281715Y-109250238D01*
X131233334Y-109153476D01*
X131233334Y-108766429D01*
X131281715Y-108669667D01*
X131378477Y-108621286D01*
X131572000Y-108621286D01*
X131668762Y-108669667D01*
X131717143Y-108766429D01*
X131717143Y-108863190D01*
X131233334Y-108959952D01*
X132152572Y-109298619D02*
X132152572Y-108621286D01*
X132152572Y-108814810D02*
X132200953Y-108718048D01*
X132249334Y-108669667D01*
X132346096Y-108621286D01*
X132442857Y-108621286D01*
X132781524Y-109298619D02*
X132781524Y-108621286D01*
X132781524Y-108718048D02*
X132829905Y-108669667D01*
X132926667Y-108621286D01*
X133071809Y-108621286D01*
X133168571Y-108669667D01*
X133216952Y-108766429D01*
X133216952Y-109298619D01*
X133216952Y-108766429D02*
X133265333Y-108669667D01*
X133362095Y-108621286D01*
X133507238Y-108621286D01*
X133604000Y-108669667D01*
X133652381Y-108766429D01*
X133652381Y-109298619D01*
X129273906Y-104091619D02*
X129467429Y-104091619D01*
X129564191Y-104140000D01*
X129660953Y-104236762D01*
X129709334Y-104430286D01*
X129709334Y-104768952D01*
X129660953Y-104962476D01*
X129564191Y-105059238D01*
X129467429Y-105107619D01*
X129273906Y-105107619D01*
X129177144Y-105059238D01*
X129080382Y-104962476D01*
X129032001Y-104768952D01*
X129032001Y-104430286D01*
X129080382Y-104236762D01*
X129177144Y-104140000D01*
X129273906Y-104091619D01*
X130144763Y-105107619D02*
X130144763Y-104091619D01*
X130725334Y-105107619D01*
X130725334Y-104091619D01*
X132950858Y-104091619D02*
X133144381Y-104091619D01*
X133241143Y-104140000D01*
X133337905Y-104236762D01*
X133386286Y-104430286D01*
X133386286Y-104768952D01*
X133337905Y-104962476D01*
X133241143Y-105059238D01*
X133144381Y-105107619D01*
X132950858Y-105107619D01*
X132854096Y-105059238D01*
X132757334Y-104962476D01*
X132708953Y-104768952D01*
X132708953Y-104430286D01*
X132757334Y-104236762D01*
X132854096Y-104140000D01*
X132950858Y-104091619D01*
X134160381Y-104575429D02*
X133821715Y-104575429D01*
X133821715Y-105107619D02*
X133821715Y-104091619D01*
X134305524Y-104091619D01*
X135031238Y-104575429D02*
X134692572Y-104575429D01*
X134692572Y-105107619D02*
X134692572Y-104091619D01*
X135176381Y-104091619D01*
D12*
X132987143Y-134674429D02*
X132987143Y-133150429D01*
X133495143Y-134239000D01*
X134003143Y-133150429D01*
X134003143Y-134674429D01*
X134728857Y-134674429D02*
X134728857Y-133150429D01*
X135309429Y-133150429D01*
X135454571Y-133223000D01*
X135527143Y-133295571D01*
X135599714Y-133440714D01*
X135599714Y-133658429D01*
X135527143Y-133803571D01*
X135454571Y-133876143D01*
X135309429Y-133948714D01*
X134728857Y-133948714D01*
X136107714Y-133150429D02*
X136470571Y-134674429D01*
X136760857Y-133585857D01*
X137051143Y-134674429D01*
X137414000Y-133150429D01*
X138865428Y-134674429D02*
X138357428Y-133948714D01*
X137994571Y-134674429D02*
X137994571Y-133150429D01*
X138575143Y-133150429D01*
X138720285Y-133223000D01*
X138792857Y-133295571D01*
X138865428Y-133440714D01*
X138865428Y-133658429D01*
X138792857Y-133803571D01*
X138720285Y-133876143D01*
X138575143Y-133948714D01*
X137994571Y-133948714D01*
X103076857Y-124689429D02*
X102351143Y-124689429D01*
X102351143Y-123165429D01*
X103584857Y-124689429D02*
X103584857Y-123165429D01*
X104165429Y-123165429D01*
X104310571Y-123238000D01*
X104383143Y-123310571D01*
X104455714Y-123455714D01*
X104455714Y-123673429D01*
X104383143Y-123818571D01*
X104310571Y-123891143D01*
X104165429Y-123963714D01*
X103584857Y-123963714D01*
X104963714Y-123165429D02*
X105326571Y-124689429D01*
X105616857Y-123600857D01*
X105907143Y-124689429D01*
X106270000Y-123165429D01*
X107721428Y-124689429D02*
X107213428Y-123963714D01*
X106850571Y-124689429D02*
X106850571Y-123165429D01*
X107431143Y-123165429D01*
X107576285Y-123238000D01*
X107648857Y-123310571D01*
X107721428Y-123455714D01*
X107721428Y-123673429D01*
X107648857Y-123818571D01*
X107576285Y-123891143D01*
X107431143Y-123963714D01*
X106850571Y-123963714D01*
X137795000Y-137762343D02*
X138303000Y-137762343D01*
X138520714Y-138560629D02*
X137795000Y-138560629D01*
X137795000Y-137036629D01*
X138520714Y-137036629D01*
X139173857Y-137980057D02*
X140335000Y-137980057D01*
X136815286Y-140875657D02*
X137033000Y-140948229D01*
X137395857Y-140948229D01*
X137541000Y-140875657D01*
X137613571Y-140803086D01*
X137686143Y-140657943D01*
X137686143Y-140512800D01*
X137613571Y-140367657D01*
X137541000Y-140295086D01*
X137395857Y-140222514D01*
X137105571Y-140149943D01*
X136960429Y-140077371D01*
X136887857Y-140004800D01*
X136815286Y-139859657D01*
X136815286Y-139714514D01*
X136887857Y-139569371D01*
X136960429Y-139496800D01*
X137105571Y-139424229D01*
X137468429Y-139424229D01*
X137686143Y-139496800D01*
X138121572Y-139932229D02*
X138702143Y-139932229D01*
X138339286Y-139424229D02*
X138339286Y-140730514D01*
X138411858Y-140875657D01*
X138557000Y-140948229D01*
X138702143Y-140948229D01*
X139427857Y-140948229D02*
X139282715Y-140875657D01*
X139210143Y-140803086D01*
X139137572Y-140657943D01*
X139137572Y-140222514D01*
X139210143Y-140077371D01*
X139282715Y-140004800D01*
X139427857Y-139932229D01*
X139645572Y-139932229D01*
X139790715Y-140004800D01*
X139863286Y-140077371D01*
X139935857Y-140222514D01*
X139935857Y-140657943D01*
X139863286Y-140803086D01*
X139790715Y-140875657D01*
X139645572Y-140948229D01*
X139427857Y-140948229D01*
X140589000Y-139932229D02*
X140589000Y-141456229D01*
X140589000Y-140004800D02*
X140734143Y-139932229D01*
X141024429Y-139932229D01*
X141169572Y-140004800D01*
X141242143Y-140077371D01*
X141314714Y-140222514D01*
X141314714Y-140657943D01*
X141242143Y-140803086D01*
X141169572Y-140875657D01*
X141024429Y-140948229D01*
X140734143Y-140948229D01*
X140589000Y-140875657D01*
X149330571Y-108108857D02*
X148169428Y-108108857D01*
X141830571Y-129108857D02*
X140669428Y-129108857D01*
X141249999Y-129689429D02*
X141249999Y-128528286D01*
X101830571Y-136608857D02*
X100669428Y-136608857D01*
X101330571Y-124858857D02*
X100169428Y-124858857D01*
X100749999Y-125439429D02*
X100749999Y-124278286D01*
X101580571Y-110858857D02*
X100419428Y-110858857D01*
X100999999Y-111439429D02*
X100999999Y-110278286D01*
X101580571Y-122608857D02*
X100419428Y-122608857D01*
D11*
X107889524Y-142179524D02*
X107466191Y-141574762D01*
X107163810Y-142179524D02*
X107163810Y-140909524D01*
X107647619Y-140909524D01*
X107768572Y-140970000D01*
X107829048Y-141030476D01*
X107889524Y-141151429D01*
X107889524Y-141332857D01*
X107829048Y-141453810D01*
X107768572Y-141514286D01*
X107647619Y-141574762D01*
X107163810Y-141574762D01*
X108917619Y-142119048D02*
X108796667Y-142179524D01*
X108554762Y-142179524D01*
X108433810Y-142119048D01*
X108373334Y-141998095D01*
X108373334Y-141514286D01*
X108433810Y-141393333D01*
X108554762Y-141332857D01*
X108796667Y-141332857D01*
X108917619Y-141393333D01*
X108978096Y-141514286D01*
X108978096Y-141635238D01*
X108373334Y-141756190D01*
X109401429Y-141332857D02*
X109703810Y-142179524D01*
X110006190Y-141332857D01*
X110490000Y-142058571D02*
X110550476Y-142119048D01*
X110490000Y-142179524D01*
X110429524Y-142119048D01*
X110490000Y-142058571D01*
X110490000Y-142179524D01*
X112001905Y-141816667D02*
X112606667Y-141816667D01*
X111880952Y-142179524D02*
X112304286Y-140909524D01*
X112727619Y-142179524D01*
X137764762Y-147477238D02*
X138151810Y-147477238D01*
X138345334Y-147574000D01*
X138538857Y-147767524D01*
X138635619Y-148154571D01*
X138635619Y-148831905D01*
X138538857Y-149218952D01*
X138345334Y-149412476D01*
X138151810Y-149509238D01*
X137764762Y-149509238D01*
X137571238Y-149412476D01*
X137377715Y-149218952D01*
X137280953Y-148831905D01*
X137280953Y-148154571D01*
X137377715Y-147767524D01*
X137571238Y-147574000D01*
X137764762Y-147477238D01*
X140183810Y-148444857D02*
X139506477Y-148444857D01*
X139506477Y-149509238D02*
X139506477Y-147477238D01*
X140474096Y-147477238D01*
X141925524Y-148444857D02*
X141248191Y-148444857D01*
X141248191Y-149509238D02*
X141248191Y-147477238D01*
X142215810Y-147477238D01*
X109867095Y-147477238D02*
X110254143Y-147477238D01*
X110447667Y-147574000D01*
X110641190Y-147767524D01*
X110737952Y-148154571D01*
X110737952Y-148831905D01*
X110641190Y-149218952D01*
X110447667Y-149412476D01*
X110254143Y-149509238D01*
X109867095Y-149509238D01*
X109673571Y-149412476D01*
X109480048Y-149218952D01*
X109383286Y-148831905D01*
X109383286Y-148154571D01*
X109480048Y-147767524D01*
X109673571Y-147574000D01*
X109867095Y-147477238D01*
X111608810Y-149509238D02*
X111608810Y-147477238D01*
X112769952Y-149509238D01*
X112769952Y-147477238D01*
X101751191Y-139609286D02*
X101932620Y-139669762D01*
X101993096Y-139730238D01*
X102053572Y-139851190D01*
X102053572Y-140032619D01*
X101993096Y-140153571D01*
X101932620Y-140214048D01*
X101811667Y-140274524D01*
X101327858Y-140274524D01*
X101327858Y-139004524D01*
X101751191Y-139004524D01*
X101872144Y-139065000D01*
X101932620Y-139125476D01*
X101993096Y-139246429D01*
X101993096Y-139367381D01*
X101932620Y-139488333D01*
X101872144Y-139548810D01*
X101751191Y-139609286D01*
X101327858Y-139609286D01*
X103142144Y-139427857D02*
X103142144Y-140274524D01*
X102597858Y-139427857D02*
X102597858Y-140093095D01*
X102658334Y-140214048D01*
X102779287Y-140274524D01*
X102960715Y-140274524D01*
X103081667Y-140214048D01*
X103142144Y-140153571D01*
X103686430Y-140214048D02*
X103807382Y-140274524D01*
X104049287Y-140274524D01*
X104170239Y-140214048D01*
X104230715Y-140093095D01*
X104230715Y-140032619D01*
X104170239Y-139911667D01*
X104049287Y-139851190D01*
X103867858Y-139851190D01*
X103746906Y-139790714D01*
X103686430Y-139669762D01*
X103686430Y-139609286D01*
X103746906Y-139488333D01*
X103867858Y-139427857D01*
X104049287Y-139427857D01*
X104170239Y-139488333D01*
X104472620Y-140395476D02*
X105440239Y-140395476D01*
X105742620Y-140274524D02*
X105742620Y-139004524D01*
X106226429Y-139004524D01*
X106347382Y-139065000D01*
X106407858Y-139125476D01*
X106468334Y-139246429D01*
X106468334Y-139427857D01*
X106407858Y-139548810D01*
X106347382Y-139609286D01*
X106226429Y-139669762D01*
X105742620Y-139669762D01*
X107194049Y-140274524D02*
X107073096Y-140214048D01*
X107012620Y-140153571D01*
X106952144Y-140032619D01*
X106952144Y-139669762D01*
X107012620Y-139548810D01*
X107073096Y-139488333D01*
X107194049Y-139427857D01*
X107375477Y-139427857D01*
X107496429Y-139488333D01*
X107556906Y-139548810D01*
X107617382Y-139669762D01*
X107617382Y-140032619D01*
X107556906Y-140153571D01*
X107496429Y-140214048D01*
X107375477Y-140274524D01*
X107194049Y-140274524D01*
X108040716Y-139427857D02*
X108282620Y-140274524D01*
X108524525Y-139669762D01*
X108766430Y-140274524D01*
X109008335Y-139427857D01*
X109975953Y-140214048D02*
X109855001Y-140274524D01*
X109613096Y-140274524D01*
X109492144Y-140214048D01*
X109431668Y-140093095D01*
X109431668Y-139609286D01*
X109492144Y-139488333D01*
X109613096Y-139427857D01*
X109855001Y-139427857D01*
X109975953Y-139488333D01*
X110036430Y-139609286D01*
X110036430Y-139730238D01*
X109431668Y-139851190D01*
X110580715Y-140274524D02*
X110580715Y-139427857D01*
X110580715Y-139669762D02*
X110641191Y-139548810D01*
X110701667Y-139488333D01*
X110822620Y-139427857D01*
X110943572Y-139427857D01*
D12*
X130810000Y-107950000D02*
X135890000Y-107950000D01*
X135890000Y-107950000D02*
X135890000Y-105410000D01*
X135890000Y-105410000D02*
X130810000Y-105410000D01*
X128270000Y-105410000D02*
X130810000Y-105410000D01*
X130810000Y-105410000D02*
X130810000Y-107950000D01*
X128270000Y-105410000D02*
X128270000Y-107950000D01*
X128270000Y-107950000D02*
X130810000Y-107950000D01*
D13*
X119412000Y-119920000D02*
X120174000Y-119412000D01*
X119412000Y-119920000D02*
X120174000Y-120428000D01*
D12*
X120174000Y-127286000D02*
X120682000Y-127286000D01*
X120682000Y-127286000D02*
X120682000Y-122714000D01*
X120682000Y-122714000D02*
X120174000Y-122714000D01*
X129826000Y-114840000D02*
X129826000Y-135160000D01*
X129826000Y-135160000D02*
X120174000Y-135160000D01*
X120174000Y-135160000D02*
X120174000Y-114840000D01*
X120174000Y-114840000D02*
X129826000Y-114840000D01*
D11*
X149700000Y-131000000D02*
X142200000Y-131000000D01*
X142200000Y-131000000D02*
X142200000Y-141000000D01*
X142200000Y-141000000D02*
X149700000Y-141000000D01*
X149700000Y-141000000D02*
X149700000Y-131000000D01*
X149700000Y-120000000D02*
X142200000Y-120000000D01*
X142200000Y-120000000D02*
X142200000Y-130000000D01*
X142200000Y-130000000D02*
X149700000Y-130000000D01*
X149700000Y-130000000D02*
X149700000Y-120000000D01*
X149700000Y-109000000D02*
X142200000Y-109000000D01*
X142200000Y-109000000D02*
X142200000Y-119000000D01*
X142200000Y-119000000D02*
X149700000Y-119000000D01*
X149700000Y-119000000D02*
X149700000Y-109000000D01*
X100300000Y-136000000D02*
X107800000Y-136000000D01*
X107800000Y-136000000D02*
X107800000Y-126000000D01*
X107800000Y-126000000D02*
X100300000Y-126000000D01*
X100300000Y-126000000D02*
X100300000Y-136000000D01*
X100300000Y-122000000D02*
X107800000Y-122000000D01*
X107800000Y-122000000D02*
X107800000Y-112000000D01*
X107800000Y-112000000D02*
X100300000Y-112000000D01*
X100300000Y-112000000D02*
X100300000Y-122000000D01*
D14*
X133460000Y-126317000D02*
X133460000Y-127714000D01*
X136000000Y-126317000D02*
X136000000Y-127714000D01*
X138540000Y-126317000D02*
X138540000Y-127714000D01*
X138514472Y-113236000D02*
G75*
G03X138514472Y-113236000I-2514472J0D01*
G74*
G01*
X141334000Y-117808000D02*
X141334000Y-109807000D01*
X141334000Y-109807000D02*
X130666000Y-109807000D01*
X130666000Y-109807000D02*
X130666000Y-117808000D01*
X141334000Y-126317000D02*
X141334000Y-117808000D01*
X141334000Y-117808000D02*
X130666000Y-117808000D01*
X130666000Y-117808000D02*
X130666000Y-126317000D01*
X136000000Y-126317000D02*
X130666000Y-126317000D01*
X136000000Y-126317000D02*
X141334000Y-126317000D01*
X111460000Y-126317000D02*
X111460000Y-127714000D01*
X114000000Y-126317000D02*
X114000000Y-127714000D01*
X116540000Y-126317000D02*
X116540000Y-127714000D01*
X116514472Y-113236000D02*
G75*
G03X116514472Y-113236000I-2514472J0D01*
G74*
G01*
X119334000Y-117808000D02*
X119334000Y-109807000D01*
X119334000Y-109807000D02*
X108666000Y-109807000D01*
X108666000Y-109807000D02*
X108666000Y-117808000D01*
X119334000Y-126317000D02*
X119334000Y-117808000D01*
X119334000Y-117808000D02*
X108666000Y-117808000D01*
X108666000Y-117808000D02*
X108666000Y-126317000D01*
X114000000Y-126317000D02*
X108666000Y-126317000D01*
X114000000Y-126317000D02*
X119334000Y-126317000D01*
D13*
X125095000Y-109855000D02*
X125095000Y-111125000D01*
X125095000Y-104775000D02*
X125095000Y-103505000D01*
X126365000Y-104775000D02*
X123825000Y-104775000D01*
X123825000Y-104775000D02*
X123825000Y-109855000D01*
X123825000Y-109855000D02*
X126365000Y-109855000D01*
X126365000Y-109855000D02*
X126365000Y-104775000D01*
D11*
X140614400Y-100736400D02*
X128625600Y-100736400D01*
X128625600Y-100736400D02*
X128625600Y-103733600D01*
X128625600Y-103733600D02*
X140614400Y-103733600D01*
X140614400Y-103733600D02*
X140614400Y-100736400D01*
X121564400Y-100736400D02*
X109575600Y-100736400D01*
X109575600Y-100736400D02*
X109575600Y-103733600D01*
X109575600Y-103733600D02*
X121564400Y-103733600D01*
X121564400Y-103733600D02*
X121564400Y-100736400D01*
X113570000Y-136015000D02*
X113570000Y-149985000D01*
X113570000Y-149985000D02*
X136430000Y-149985000D01*
X136430000Y-149985000D02*
X136430000Y-136015000D01*
X136430000Y-136015000D02*
X113570000Y-136015000D01*
X104225905Y-105459619D02*
X104225905Y-104443619D01*
X104225905Y-104927429D02*
X104806476Y-104927429D01*
X104806476Y-105459619D02*
X104806476Y-104443619D01*
X105822476Y-105459619D02*
X105241905Y-105459619D01*
X105532191Y-105459619D02*
X105532191Y-104443619D01*
X105435429Y-104588762D01*
X105338667Y-104685524D01*
X105241905Y-104733905D01*
X144225905Y-105459619D02*
X144225905Y-104443619D01*
X144225905Y-104927429D02*
X144806476Y-104927429D01*
X144806476Y-105459619D02*
X144806476Y-104443619D01*
X145241905Y-104540381D02*
X145290286Y-104492000D01*
X145387048Y-104443619D01*
X145628952Y-104443619D01*
X145725714Y-104492000D01*
X145774095Y-104540381D01*
X145822476Y-104637143D01*
X145822476Y-104733905D01*
X145774095Y-104879048D01*
X145193524Y-105459619D01*
X145822476Y-105459619D01*
X104225905Y-145459619D02*
X104225905Y-144443619D01*
X104225905Y-144927429D02*
X104806476Y-144927429D01*
X104806476Y-145459619D02*
X104806476Y-144443619D01*
X105193524Y-144443619D02*
X105822476Y-144443619D01*
X105483810Y-144830667D01*
X105628952Y-144830667D01*
X105725714Y-144879048D01*
X105774095Y-144927429D01*
X105822476Y-145024190D01*
X105822476Y-145266095D01*
X105774095Y-145362857D01*
X105725714Y-145411238D01*
X105628952Y-145459619D01*
X105338667Y-145459619D01*
X105241905Y-145411238D01*
X105193524Y-145362857D01*
X144225905Y-145459619D02*
X144225905Y-144443619D01*
X144225905Y-144927429D02*
X144806476Y-144927429D01*
X144806476Y-145459619D02*
X144806476Y-144443619D01*
X145725714Y-144782286D02*
X145725714Y-145459619D01*
X145483810Y-144395238D02*
X145241905Y-145120952D01*
X145870857Y-145120952D01*
X128566333Y-108663619D02*
X128566333Y-109389333D01*
X128517953Y-109534476D01*
X128421191Y-109631238D01*
X128276048Y-109679619D01*
X128179286Y-109679619D01*
X129582333Y-109679619D02*
X129001762Y-109679619D01*
X129292048Y-109679619D02*
X129292048Y-108663619D01*
X129195286Y-108808762D01*
X129098524Y-108905524D01*
X129001762Y-108953905D01*
X130670905Y-135079619D02*
X130670905Y-134063619D01*
X131251476Y-135079619D01*
X131251476Y-134063619D01*
X131686905Y-134160381D02*
X131735286Y-134112000D01*
X131832048Y-134063619D01*
X132073952Y-134063619D01*
X132170714Y-134112000D01*
X132219095Y-134160381D01*
X132267476Y-134257143D01*
X132267476Y-134353905D01*
X132219095Y-134499048D01*
X131638524Y-135079619D01*
X132267476Y-135079619D01*
X147815905Y-142699619D02*
X147815905Y-141683619D01*
X148396476Y-142699619D01*
X148396476Y-141683619D01*
X148783524Y-141683619D02*
X149412476Y-141683619D01*
X149073810Y-142070667D01*
X149218952Y-142070667D01*
X149315714Y-142119048D01*
X149364095Y-142167429D01*
X149412476Y-142264190D01*
X149412476Y-142506095D01*
X149364095Y-142602857D01*
X149315714Y-142651238D01*
X149218952Y-142699619D01*
X148928667Y-142699619D01*
X148831905Y-142651238D01*
X148783524Y-142602857D01*
X140195905Y-128094619D02*
X140195905Y-127078619D01*
X140776476Y-128094619D01*
X140776476Y-127078619D01*
X141695714Y-127417286D02*
X141695714Y-128094619D01*
X141453810Y-127030238D02*
X141211905Y-127755952D01*
X141840857Y-127755952D01*
X140195905Y-109044619D02*
X140195905Y-108028619D01*
X140776476Y-109044619D01*
X140776476Y-108028619D01*
X141744095Y-108028619D02*
X141260286Y-108028619D01*
X141211905Y-108512429D01*
X141260286Y-108464048D01*
X141357048Y-108415667D01*
X141598952Y-108415667D01*
X141695714Y-108464048D01*
X141744095Y-108512429D01*
X141792476Y-108609190D01*
X141792476Y-108851095D01*
X141744095Y-108947857D01*
X141695714Y-108996238D01*
X141598952Y-109044619D01*
X141357048Y-109044619D01*
X141260286Y-108996238D01*
X141211905Y-108947857D01*
X108445905Y-135714619D02*
X108445905Y-134698619D01*
X109026476Y-135714619D01*
X109026476Y-134698619D01*
X109945714Y-134698619D02*
X109752191Y-134698619D01*
X109655429Y-134747000D01*
X109607048Y-134795381D01*
X109510286Y-134940524D01*
X109461905Y-135134048D01*
X109461905Y-135521095D01*
X109510286Y-135617857D01*
X109558667Y-135666238D01*
X109655429Y-135714619D01*
X109848952Y-135714619D01*
X109945714Y-135666238D01*
X109994095Y-135617857D01*
X110042476Y-135521095D01*
X110042476Y-135279190D01*
X109994095Y-135182429D01*
X109945714Y-135134048D01*
X109848952Y-135085667D01*
X109655429Y-135085667D01*
X109558667Y-135134048D01*
X109510286Y-135182429D01*
X109461905Y-135279190D01*
X105905905Y-111584619D02*
X105905905Y-110568619D01*
X106486476Y-111584619D01*
X106486476Y-110568619D01*
X106873524Y-110568619D02*
X107550857Y-110568619D01*
X107115429Y-111584619D01*
X137698238Y-109141381D02*
X137601476Y-109093000D01*
X137504714Y-108996238D01*
X137359571Y-108851095D01*
X137262810Y-108802714D01*
X137166048Y-108802714D01*
X137214429Y-109044619D02*
X137117667Y-108996238D01*
X137020905Y-108899476D01*
X136972524Y-108705952D01*
X136972524Y-108367286D01*
X137020905Y-108173762D01*
X137117667Y-108077000D01*
X137214429Y-108028619D01*
X137407952Y-108028619D01*
X137504714Y-108077000D01*
X137601476Y-108173762D01*
X137649857Y-108367286D01*
X137649857Y-108705952D01*
X137601476Y-108899476D01*
X137504714Y-108996238D01*
X137407952Y-109044619D01*
X137214429Y-109044619D01*
X138617476Y-109044619D02*
X138036905Y-109044619D01*
X138327191Y-109044619D02*
X138327191Y-108028619D01*
X138230429Y-108173762D01*
X138133667Y-108270524D01*
X138036905Y-108318905D01*
D15*
X133722104Y-124419620D02*
X133626793Y-124371965D01*
X133483828Y-124371965D01*
X133340862Y-124419620D01*
X133245551Y-124514930D01*
X133197896Y-124610241D01*
X133150241Y-124800862D01*
X133150241Y-124943828D01*
X133197896Y-125134449D01*
X133245551Y-125229759D01*
X133340862Y-125325070D01*
X133483828Y-125372725D01*
X133579138Y-125372725D01*
X133722104Y-125325070D01*
X133769759Y-125277414D01*
X133769759Y-124943828D01*
X133579138Y-124943828D01*
D16*
D15*
X138254069Y-125325070D02*
X138397035Y-125372725D01*
X138635311Y-125372725D01*
X138730621Y-125325070D01*
X138778277Y-125277414D01*
X138825932Y-125182104D01*
X138825932Y-125086793D01*
X138778277Y-124991483D01*
X138730621Y-124943828D01*
X138635311Y-124896172D01*
X138444690Y-124848517D01*
X138349379Y-124800862D01*
X138301724Y-124753207D01*
X138254069Y-124657896D01*
X138254069Y-124562586D01*
X138301724Y-124467275D01*
X138349379Y-124419620D01*
X138444690Y-124371965D01*
X138682966Y-124371965D01*
X138825932Y-124419620D01*
D16*
D15*
X135737896Y-125372725D02*
X135737896Y-124371965D01*
X135976172Y-124371965D01*
X136119138Y-124419620D01*
X136214449Y-124514930D01*
X136262104Y-124610241D01*
X136309759Y-124800862D01*
X136309759Y-124943828D01*
X136262104Y-125134449D01*
X136214449Y-125229759D01*
X136119138Y-125325070D01*
X135976172Y-125372725D01*
X135737896Y-125372725D01*
D16*
D11*
X114203238Y-109141381D02*
X114106476Y-109093000D01*
X114009714Y-108996238D01*
X113864571Y-108851095D01*
X113767810Y-108802714D01*
X113671048Y-108802714D01*
X113719429Y-109044619D02*
X113622667Y-108996238D01*
X113525905Y-108899476D01*
X113477524Y-108705952D01*
X113477524Y-108367286D01*
X113525905Y-108173762D01*
X113622667Y-108077000D01*
X113719429Y-108028619D01*
X113912952Y-108028619D01*
X114009714Y-108077000D01*
X114106476Y-108173762D01*
X114154857Y-108367286D01*
X114154857Y-108705952D01*
X114106476Y-108899476D01*
X114009714Y-108996238D01*
X113912952Y-109044619D01*
X113719429Y-109044619D01*
X114541905Y-108125381D02*
X114590286Y-108077000D01*
X114687048Y-108028619D01*
X114928952Y-108028619D01*
X115025714Y-108077000D01*
X115074095Y-108125381D01*
X115122476Y-108222143D01*
X115122476Y-108318905D01*
X115074095Y-108464048D01*
X114493524Y-109044619D01*
X115122476Y-109044619D01*
D15*
X111722104Y-124419620D02*
X111626793Y-124371965D01*
X111483828Y-124371965D01*
X111340862Y-124419620D01*
X111245551Y-124514930D01*
X111197896Y-124610241D01*
X111150241Y-124800862D01*
X111150241Y-124943828D01*
X111197896Y-125134449D01*
X111245551Y-125229759D01*
X111340862Y-125325070D01*
X111483828Y-125372725D01*
X111579138Y-125372725D01*
X111722104Y-125325070D01*
X111769759Y-125277414D01*
X111769759Y-124943828D01*
X111579138Y-124943828D01*
D16*
D15*
X116254069Y-125325070D02*
X116397035Y-125372725D01*
X116635311Y-125372725D01*
X116730621Y-125325070D01*
X116778277Y-125277414D01*
X116825932Y-125182104D01*
X116825932Y-125086793D01*
X116778277Y-124991483D01*
X116730621Y-124943828D01*
X116635311Y-124896172D01*
X116444690Y-124848517D01*
X116349379Y-124800862D01*
X116301724Y-124753207D01*
X116254069Y-124657896D01*
X116254069Y-124562586D01*
X116301724Y-124467275D01*
X116349379Y-124419620D01*
X116444690Y-124371965D01*
X116682966Y-124371965D01*
X116825932Y-124419620D01*
D16*
D15*
X113737896Y-125372725D02*
X113737896Y-124371965D01*
X113976172Y-124371965D01*
X114119138Y-124419620D01*
X114214449Y-124514930D01*
X114262104Y-124610241D01*
X114309759Y-124800862D01*
X114309759Y-124943828D01*
X114262104Y-125134449D01*
X114214449Y-125229759D01*
X114119138Y-125325070D01*
X113976172Y-125372725D01*
X113737896Y-125372725D01*
D16*
D11*
X122385667Y-106504619D02*
X122047001Y-106020810D01*
X121805096Y-106504619D02*
X121805096Y-105488619D01*
X122192143Y-105488619D01*
X122288905Y-105537000D01*
X122337286Y-105585381D01*
X122385667Y-105682143D01*
X122385667Y-105827286D01*
X122337286Y-105924048D01*
X122288905Y-105972429D01*
X122192143Y-106020810D01*
X121805096Y-106020810D01*
X123353286Y-106504619D02*
X122772715Y-106504619D01*
X123063001Y-106504619D02*
X123063001Y-105488619D01*
X122966239Y-105633762D01*
X122869477Y-105730524D01*
X122772715Y-105778905D01*
X142070667Y-101424619D02*
X141732001Y-100940810D01*
X141490096Y-101424619D02*
X141490096Y-100408619D01*
X141877143Y-100408619D01*
X141973905Y-100457000D01*
X142022286Y-100505381D01*
X142070667Y-100602143D01*
X142070667Y-100747286D01*
X142022286Y-100844048D01*
X141973905Y-100892429D01*
X141877143Y-100940810D01*
X141490096Y-100940810D01*
X142457715Y-100505381D02*
X142506096Y-100457000D01*
X142602858Y-100408619D01*
X142844762Y-100408619D01*
X142941524Y-100457000D01*
X142989905Y-100505381D01*
X143038286Y-100602143D01*
X143038286Y-100698905D01*
X142989905Y-100844048D01*
X142409334Y-101424619D01*
X143038286Y-101424619D01*
X115400667Y-105234619D02*
X115062001Y-104750810D01*
X114820096Y-105234619D02*
X114820096Y-104218619D01*
X115207143Y-104218619D01*
X115303905Y-104267000D01*
X115352286Y-104315381D01*
X115400667Y-104412143D01*
X115400667Y-104557286D01*
X115352286Y-104654048D01*
X115303905Y-104702429D01*
X115207143Y-104750810D01*
X114820096Y-104750810D01*
X115739334Y-104218619D02*
X116368286Y-104218619D01*
X116029620Y-104605667D01*
X116174762Y-104605667D01*
X116271524Y-104654048D01*
X116319905Y-104702429D01*
X116368286Y-104799190D01*
X116368286Y-105041095D01*
X116319905Y-105137857D01*
X116271524Y-105186238D01*
X116174762Y-105234619D01*
X115884477Y-105234619D01*
X115787715Y-105186238D01*
X115739334Y-105137857D01*
X114215334Y-135031238D02*
X114360477Y-135079619D01*
X114602381Y-135079619D01*
X114699143Y-135031238D01*
X114747524Y-134982857D01*
X114795905Y-134886095D01*
X114795905Y-134789333D01*
X114747524Y-134692571D01*
X114699143Y-134644190D01*
X114602381Y-134595810D01*
X114408858Y-134547429D01*
X114312096Y-134499048D01*
X114263715Y-134450667D01*
X114215334Y-134353905D01*
X114215334Y-134257143D01*
X114263715Y-134160381D01*
X114312096Y-134112000D01*
X114408858Y-134063619D01*
X114650762Y-134063619D01*
X114795905Y-134112000D01*
X115134572Y-134063619D02*
X115376477Y-135079619D01*
X115570000Y-134353905D01*
X115763524Y-135079619D01*
X116005429Y-134063619D01*
X116924667Y-135079619D02*
X116344096Y-135079619D01*
X116634382Y-135079619D02*
X116634382Y-134063619D01*
X116537620Y-134208762D01*
X116440858Y-134305524D01*
X116344096Y-134353905D01*
M02*
