%FSLAX36Y36*%
G04 Gerber Fmt 3.6, Leading zero omitted, Abs format (unit inch)*
G04 Created by KiCad (PCBNEW (2014-jul-16 BZR unknown)-product) date Sun 19 Oct 2014 05:14:07 PM PDT*
%MOIN*%
G01*
G04 APERTURE LIST*
%ADD10C,0.003937*%
%ADD11R,0.068000X0.068000*%
%ADD12C,0.068000*%
%ADD13R,0.060000X0.060000*%
%ADD14C,0.060000*%
%ADD15C,0.080000*%
%ADD16O,0.066900X0.137800*%
%ADD17R,0.380000X0.620000*%
%ADD18C,0.078700*%
%ADD19C,0.150000*%
G04 APERTURE END LIST*
D10*
D11*
X5100000Y-4200000D03*
D12*
X5200000Y-4200000D03*
X5300000Y-4200000D03*
D13*
X4871260Y-4721260D03*
D14*
X4971260Y-4721260D03*
X4871260Y-4821260D03*
X4971260Y-4821260D03*
X4871260Y-4921260D03*
X4971260Y-4921260D03*
X4871260Y-5021260D03*
X4971260Y-5021260D03*
X4871260Y-5121260D03*
X4971260Y-5121260D03*
D15*
X5728346Y-5255906D03*
X5728346Y-5452756D03*
X5728346Y-4822835D03*
X5728346Y-5019685D03*
X5728346Y-4389764D03*
X5728346Y-4586614D03*
X4114173Y-5255906D03*
X4114173Y-5059055D03*
X4114173Y-4704724D03*
X4114173Y-4507874D03*
D16*
X5354331Y-5118110D03*
X5254331Y-5118110D03*
X5454331Y-5118110D03*
D17*
X5354331Y-4648110D03*
D16*
X4488189Y-5118110D03*
X4388189Y-5118110D03*
X4588189Y-5118110D03*
D17*
X4488189Y-4648110D03*
D18*
X4925000Y-4025000D03*
X4925000Y-4425000D03*
D15*
X5400500Y-4025000D03*
X5199500Y-4025000D03*
X4650500Y-4025000D03*
X4449500Y-4025000D03*
D19*
X4921260Y-5799921D03*
X4921260Y-5459921D03*
X5233260Y-5799921D03*
X4609260Y-5459921D03*
X5233260Y-5459921D03*
X4609260Y-5799921D03*
M02*
