%FSLAX46Y46*%
G04 Gerber Fmt 4.6, Leading zero omitted, Abs format (unit mm)*
G04 Created by KiCad (PCBNEW (2014-jul-16 BZR unknown)-product) date Wed 01 Oct 2014 08:58:49 PM PDT*
%MOMM*%
G01*
G04 APERTURE LIST*
%ADD10C,0.100000*%
%ADD11C,0.203200*%
%ADD12C,0.002540*%
G04 APERTURE END LIST*
D10*
D11*
X122796904Y-116673086D02*
X122615475Y-116733562D01*
X122554999Y-116794038D01*
X122494523Y-116914990D01*
X122494523Y-117096419D01*
X122554999Y-117217371D01*
X122615475Y-117277848D01*
X122736428Y-117338324D01*
X123220237Y-117338324D01*
X123220237Y-116068324D01*
X122796904Y-116068324D01*
X122675951Y-116128800D01*
X122615475Y-116189276D01*
X122554999Y-116310229D01*
X122554999Y-116431181D01*
X122615475Y-116552133D01*
X122675951Y-116612610D01*
X122796904Y-116673086D01*
X123220237Y-116673086D01*
X121405951Y-116491657D02*
X121405951Y-117338324D01*
X121950237Y-116491657D02*
X121950237Y-117156895D01*
X121889761Y-117277848D01*
X121768808Y-117338324D01*
X121587380Y-117338324D01*
X121466428Y-117277848D01*
X121405951Y-117217371D01*
X120861665Y-117277848D02*
X120740713Y-117338324D01*
X120498808Y-117338324D01*
X120377856Y-117277848D01*
X120317380Y-117156895D01*
X120317380Y-117096419D01*
X120377856Y-116975467D01*
X120498808Y-116914990D01*
X120680237Y-116914990D01*
X120801189Y-116854514D01*
X120861665Y-116733562D01*
X120861665Y-116673086D01*
X120801189Y-116552133D01*
X120680237Y-116491657D01*
X120498808Y-116491657D01*
X120377856Y-116552133D01*
X118805475Y-117338324D02*
X118805475Y-116068324D01*
X118321666Y-116068324D01*
X118200713Y-116128800D01*
X118140237Y-116189276D01*
X118079761Y-116310229D01*
X118079761Y-116491657D01*
X118140237Y-116612610D01*
X118200713Y-116673086D01*
X118321666Y-116733562D01*
X118805475Y-116733562D01*
X117354046Y-117338324D02*
X117474999Y-117277848D01*
X117535475Y-117217371D01*
X117595951Y-117096419D01*
X117595951Y-116733562D01*
X117535475Y-116612610D01*
X117474999Y-116552133D01*
X117354046Y-116491657D01*
X117172618Y-116491657D01*
X117051666Y-116552133D01*
X116991189Y-116612610D01*
X116930713Y-116733562D01*
X116930713Y-117096419D01*
X116991189Y-117217371D01*
X117051666Y-117277848D01*
X117172618Y-117338324D01*
X117354046Y-117338324D01*
X116507379Y-116491657D02*
X116265475Y-117338324D01*
X116023570Y-116733562D01*
X115781665Y-117338324D01*
X115539760Y-116491657D01*
X114572142Y-117277848D02*
X114693094Y-117338324D01*
X114934999Y-117338324D01*
X115055951Y-117277848D01*
X115116427Y-117156895D01*
X115116427Y-116673086D01*
X115055951Y-116552133D01*
X114934999Y-116491657D01*
X114693094Y-116491657D01*
X114572142Y-116552133D01*
X114511665Y-116673086D01*
X114511665Y-116794038D01*
X115116427Y-116914990D01*
X113967380Y-117338324D02*
X113967380Y-116491657D01*
X113967380Y-116733562D02*
X113906904Y-116612610D01*
X113846428Y-116552133D01*
X113725475Y-116491657D01*
X113604523Y-116491657D01*
X111487857Y-117338324D02*
X111911190Y-116733562D01*
X112213571Y-117338324D02*
X112213571Y-116068324D01*
X111729762Y-116068324D01*
X111608809Y-116128800D01*
X111548333Y-116189276D01*
X111487857Y-116310229D01*
X111487857Y-116491657D01*
X111548333Y-116612610D01*
X111608809Y-116673086D01*
X111729762Y-116733562D01*
X112213571Y-116733562D01*
X110459762Y-117277848D02*
X110580714Y-117338324D01*
X110822619Y-117338324D01*
X110943571Y-117277848D01*
X111004047Y-117156895D01*
X111004047Y-116673086D01*
X110943571Y-116552133D01*
X110822619Y-116491657D01*
X110580714Y-116491657D01*
X110459762Y-116552133D01*
X110399285Y-116673086D01*
X110399285Y-116794038D01*
X111004047Y-116914990D01*
X109975952Y-116491657D02*
X109673571Y-117338324D01*
X109371191Y-116491657D01*
X108887381Y-117217371D02*
X108826905Y-117277848D01*
X108887381Y-117338324D01*
X108947857Y-117277848D01*
X108887381Y-117217371D01*
X108887381Y-117338324D01*
X106891667Y-116673086D02*
X106710238Y-116733562D01*
X106649762Y-116794038D01*
X106589286Y-116914990D01*
X106589286Y-117096419D01*
X106649762Y-117217371D01*
X106710238Y-117277848D01*
X106831191Y-117338324D01*
X107315000Y-117338324D01*
X107315000Y-116068324D01*
X106891667Y-116068324D01*
X106770714Y-116128800D01*
X106710238Y-116189276D01*
X106649762Y-116310229D01*
X106649762Y-116431181D01*
X106710238Y-116552133D01*
X106770714Y-116612610D01*
X106891667Y-116673086D01*
X107315000Y-116673086D01*
X118563571Y-119319524D02*
X119289285Y-119319524D01*
X118926428Y-119319524D02*
X118926428Y-118049524D01*
X119047380Y-118230952D01*
X119168333Y-118351905D01*
X119289285Y-118412381D01*
X117777380Y-118049524D02*
X117535476Y-118049524D01*
X117414523Y-118110000D01*
X117293571Y-118230952D01*
X117233095Y-118472857D01*
X117233095Y-118896190D01*
X117293571Y-119138095D01*
X117414523Y-119259048D01*
X117535476Y-119319524D01*
X117777380Y-119319524D01*
X117898333Y-119259048D01*
X118019285Y-119138095D01*
X118079761Y-118896190D01*
X118079761Y-118472857D01*
X118019285Y-118230952D01*
X117898333Y-118110000D01*
X117777380Y-118049524D01*
X116144523Y-119259048D02*
X116265476Y-119319524D01*
X116507380Y-119319524D01*
X116628333Y-119259048D01*
X116688809Y-119198571D01*
X116749285Y-119077619D01*
X116749285Y-118714762D01*
X116688809Y-118593810D01*
X116628333Y-118533333D01*
X116507380Y-118472857D01*
X116265476Y-118472857D01*
X116144523Y-118533333D01*
X115781667Y-118472857D02*
X115297857Y-118472857D01*
X115600238Y-118049524D02*
X115600238Y-119138095D01*
X115539762Y-119259048D01*
X115418809Y-119319524D01*
X115297857Y-119319524D01*
X114935000Y-118170476D02*
X114874524Y-118110000D01*
X114753572Y-118049524D01*
X114451191Y-118049524D01*
X114330238Y-118110000D01*
X114269762Y-118170476D01*
X114209286Y-118291429D01*
X114209286Y-118412381D01*
X114269762Y-118593810D01*
X114995476Y-119319524D01*
X114209286Y-119319524D01*
X113423095Y-118049524D02*
X113302143Y-118049524D01*
X113181191Y-118110000D01*
X113120714Y-118170476D01*
X113060238Y-118291429D01*
X112999762Y-118533333D01*
X112999762Y-118835714D01*
X113060238Y-119077619D01*
X113120714Y-119198571D01*
X113181191Y-119259048D01*
X113302143Y-119319524D01*
X113423095Y-119319524D01*
X113544048Y-119259048D01*
X113604524Y-119198571D01*
X113665000Y-119077619D01*
X113725476Y-118835714D01*
X113725476Y-118533333D01*
X113665000Y-118291429D01*
X113604524Y-118170476D01*
X113544048Y-118110000D01*
X113423095Y-118049524D01*
X111790238Y-119319524D02*
X112515952Y-119319524D01*
X112153095Y-119319524D02*
X112153095Y-118049524D01*
X112274047Y-118230952D01*
X112395000Y-118351905D01*
X112515952Y-118412381D01*
X110701666Y-118472857D02*
X110701666Y-119319524D01*
X111004047Y-117989048D02*
X111306428Y-118896190D01*
X110520238Y-118896190D01*
X120347619Y-121784533D02*
X120408095Y-121724057D01*
X120529047Y-121542629D01*
X120589524Y-121421676D01*
X120650000Y-121240248D01*
X120710476Y-120937867D01*
X120710476Y-120695962D01*
X120650000Y-120393581D01*
X120589524Y-120212152D01*
X120529047Y-120091200D01*
X120408095Y-119909771D01*
X120347619Y-119849295D01*
X119319523Y-121240248D02*
X119440476Y-121300724D01*
X119682380Y-121300724D01*
X119803333Y-121240248D01*
X119863809Y-121179771D01*
X119924285Y-121058819D01*
X119924285Y-120695962D01*
X119863809Y-120575010D01*
X119803333Y-120514533D01*
X119682380Y-120454057D01*
X119440476Y-120454057D01*
X119319523Y-120514533D01*
X118896190Y-121784533D02*
X118835714Y-121724057D01*
X118714762Y-121542629D01*
X118654286Y-121421676D01*
X118593809Y-121240248D01*
X118533333Y-120937867D01*
X118533333Y-120695962D01*
X118593809Y-120393581D01*
X118654286Y-120212152D01*
X118714762Y-120091200D01*
X118835714Y-119909771D01*
X118896190Y-119849295D01*
X116295714Y-120091200D02*
X116416666Y-120030724D01*
X116598095Y-120030724D01*
X116779523Y-120091200D01*
X116900476Y-120212152D01*
X116960952Y-120333105D01*
X117021428Y-120575010D01*
X117021428Y-120756438D01*
X116960952Y-120998343D01*
X116900476Y-121119295D01*
X116779523Y-121240248D01*
X116598095Y-121300724D01*
X116477143Y-121300724D01*
X116295714Y-121240248D01*
X116235238Y-121179771D01*
X116235238Y-120756438D01*
X116477143Y-120756438D01*
X115690952Y-121300724D02*
X115690952Y-120454057D01*
X115690952Y-120695962D02*
X115630476Y-120575010D01*
X115570000Y-120514533D01*
X115449047Y-120454057D01*
X115328095Y-120454057D01*
X114360476Y-121300724D02*
X114360476Y-120635486D01*
X114420953Y-120514533D01*
X114541905Y-120454057D01*
X114783810Y-120454057D01*
X114904762Y-120514533D01*
X114360476Y-121240248D02*
X114481429Y-121300724D01*
X114783810Y-121300724D01*
X114904762Y-121240248D01*
X114965238Y-121119295D01*
X114965238Y-120998343D01*
X114904762Y-120877390D01*
X114783810Y-120816914D01*
X114481429Y-120816914D01*
X114360476Y-120756438D01*
X113755714Y-121300724D02*
X113755714Y-120454057D01*
X113755714Y-120575010D02*
X113695238Y-120514533D01*
X113574285Y-120454057D01*
X113392857Y-120454057D01*
X113271905Y-120514533D01*
X113211428Y-120635486D01*
X113211428Y-121300724D01*
X113211428Y-120635486D02*
X113150952Y-120514533D01*
X113030000Y-120454057D01*
X112848571Y-120454057D01*
X112727619Y-120514533D01*
X112667143Y-120635486D01*
X112667143Y-121300724D01*
X111880952Y-121300724D02*
X112001905Y-121240248D01*
X112062381Y-121119295D01*
X112062381Y-120030724D01*
X111397143Y-121300724D02*
X111397143Y-120454057D01*
X111397143Y-120030724D02*
X111457619Y-120091200D01*
X111397143Y-120151676D01*
X111336667Y-120091200D01*
X111397143Y-120030724D01*
X111397143Y-120151676D01*
X110248095Y-121240248D02*
X110369048Y-121300724D01*
X110610952Y-121300724D01*
X110731905Y-121240248D01*
X110792381Y-121179771D01*
X110852857Y-121058819D01*
X110852857Y-120695962D01*
X110792381Y-120575010D01*
X110731905Y-120514533D01*
X110610952Y-120454057D01*
X110369048Y-120454057D01*
X110248095Y-120514533D01*
X109703810Y-121300724D02*
X109703810Y-120030724D01*
X109159524Y-121300724D02*
X109159524Y-120635486D01*
X109220001Y-120514533D01*
X109340953Y-120454057D01*
X109522381Y-120454057D01*
X109643334Y-120514533D01*
X109703810Y-120575010D01*
X139524619Y-127376404D02*
X139524619Y-126106404D01*
X138980333Y-127376404D02*
X138980333Y-126711166D01*
X139040810Y-126590213D01*
X139161762Y-126529737D01*
X139343190Y-126529737D01*
X139464143Y-126590213D01*
X139524619Y-126650690D01*
X137831285Y-127376404D02*
X137831285Y-126711166D01*
X137891762Y-126590213D01*
X138012714Y-126529737D01*
X138254619Y-126529737D01*
X138375571Y-126590213D01*
X137831285Y-127315928D02*
X137952238Y-127376404D01*
X138254619Y-127376404D01*
X138375571Y-127315928D01*
X138436047Y-127194975D01*
X138436047Y-127074023D01*
X138375571Y-126953070D01*
X138254619Y-126892594D01*
X137952238Y-126892594D01*
X137831285Y-126832118D01*
X137226523Y-127376404D02*
X137226523Y-126529737D01*
X137226523Y-126771642D02*
X137166047Y-126650690D01*
X137105571Y-126590213D01*
X136984618Y-126529737D01*
X136863666Y-126529737D01*
X135896047Y-127376404D02*
X135896047Y-126106404D01*
X135896047Y-127315928D02*
X136017000Y-127376404D01*
X136258904Y-127376404D01*
X136379857Y-127315928D01*
X136440333Y-127255451D01*
X136500809Y-127134499D01*
X136500809Y-126771642D01*
X136440333Y-126650690D01*
X136379857Y-126590213D01*
X136258904Y-126529737D01*
X136017000Y-126529737D01*
X135896047Y-126590213D01*
X135412237Y-126529737D02*
X135170333Y-127376404D01*
X134928428Y-126771642D01*
X134686523Y-127376404D01*
X134444618Y-126529737D01*
X133416523Y-127376404D02*
X133416523Y-126711166D01*
X133477000Y-126590213D01*
X133597952Y-126529737D01*
X133839857Y-126529737D01*
X133960809Y-126590213D01*
X133416523Y-127315928D02*
X133537476Y-127376404D01*
X133839857Y-127376404D01*
X133960809Y-127315928D01*
X134021285Y-127194975D01*
X134021285Y-127074023D01*
X133960809Y-126953070D01*
X133839857Y-126892594D01*
X133537476Y-126892594D01*
X133416523Y-126832118D01*
X132811761Y-127376404D02*
X132811761Y-126529737D01*
X132811761Y-126771642D02*
X132751285Y-126650690D01*
X132690809Y-126590213D01*
X132569856Y-126529737D01*
X132448904Y-126529737D01*
X131541762Y-127315928D02*
X131662714Y-127376404D01*
X131904619Y-127376404D01*
X132025571Y-127315928D01*
X132086047Y-127194975D01*
X132086047Y-126711166D01*
X132025571Y-126590213D01*
X131904619Y-126529737D01*
X131662714Y-126529737D01*
X131541762Y-126590213D01*
X131481285Y-126711166D01*
X131481285Y-126832118D01*
X132086047Y-126953070D01*
X140486190Y-125669524D02*
X140607143Y-125609048D01*
X140667619Y-125548571D01*
X140728095Y-125427619D01*
X140728095Y-125064762D01*
X140667619Y-124943810D01*
X140607143Y-124883333D01*
X140486190Y-124822857D01*
X140304762Y-124822857D01*
X140183810Y-124883333D01*
X140123333Y-124943810D01*
X140062857Y-125064762D01*
X140062857Y-125427619D01*
X140123333Y-125548571D01*
X140183810Y-125609048D01*
X140304762Y-125669524D01*
X140486190Y-125669524D01*
X139518571Y-124822857D02*
X139518571Y-126092857D01*
X139518571Y-124883333D02*
X139397619Y-124822857D01*
X139155714Y-124822857D01*
X139034762Y-124883333D01*
X138974285Y-124943810D01*
X138913809Y-125064762D01*
X138913809Y-125427619D01*
X138974285Y-125548571D01*
X139034762Y-125609048D01*
X139155714Y-125669524D01*
X139397619Y-125669524D01*
X139518571Y-125609048D01*
X137885714Y-125609048D02*
X138006666Y-125669524D01*
X138248571Y-125669524D01*
X138369523Y-125609048D01*
X138429999Y-125488095D01*
X138429999Y-125004286D01*
X138369523Y-124883333D01*
X138248571Y-124822857D01*
X138006666Y-124822857D01*
X137885714Y-124883333D01*
X137825237Y-125004286D01*
X137825237Y-125125238D01*
X138429999Y-125246190D01*
X137280952Y-124822857D02*
X137280952Y-125669524D01*
X137280952Y-124943810D02*
X137220476Y-124883333D01*
X137099523Y-124822857D01*
X136918095Y-124822857D01*
X136797143Y-124883333D01*
X136736666Y-125004286D01*
X136736666Y-125669524D01*
X135224761Y-125609048D02*
X135103809Y-125669524D01*
X134861904Y-125669524D01*
X134740952Y-125609048D01*
X134680476Y-125488095D01*
X134680476Y-125427619D01*
X134740952Y-125306667D01*
X134861904Y-125246190D01*
X135043333Y-125246190D01*
X135164285Y-125185714D01*
X135224761Y-125064762D01*
X135224761Y-125004286D01*
X135164285Y-124883333D01*
X135043333Y-124822857D01*
X134861904Y-124822857D01*
X134740952Y-124883333D01*
X133954761Y-125669524D02*
X134075714Y-125609048D01*
X134136190Y-125548571D01*
X134196666Y-125427619D01*
X134196666Y-125064762D01*
X134136190Y-124943810D01*
X134075714Y-124883333D01*
X133954761Y-124822857D01*
X133773333Y-124822857D01*
X133652381Y-124883333D01*
X133591904Y-124943810D01*
X133531428Y-125064762D01*
X133531428Y-125427619D01*
X133591904Y-125548571D01*
X133652381Y-125609048D01*
X133773333Y-125669524D01*
X133954761Y-125669524D01*
X132442856Y-124822857D02*
X132442856Y-125669524D01*
X132987142Y-124822857D02*
X132987142Y-125488095D01*
X132926666Y-125609048D01*
X132805713Y-125669524D01*
X132624285Y-125669524D01*
X132503333Y-125609048D01*
X132442856Y-125548571D01*
X131838094Y-125669524D02*
X131838094Y-124822857D01*
X131838094Y-125064762D02*
X131777618Y-124943810D01*
X131717142Y-124883333D01*
X131596189Y-124822857D01*
X131475237Y-124822857D01*
X130507618Y-125609048D02*
X130628571Y-125669524D01*
X130870475Y-125669524D01*
X130991428Y-125609048D01*
X131051904Y-125548571D01*
X131112380Y-125427619D01*
X131112380Y-125064762D01*
X131051904Y-124943810D01*
X130991428Y-124883333D01*
X130870475Y-124822857D01*
X130628571Y-124822857D01*
X130507618Y-124883333D01*
X129479524Y-125609048D02*
X129600476Y-125669524D01*
X129842381Y-125669524D01*
X129963333Y-125609048D01*
X130023809Y-125488095D01*
X130023809Y-125004286D01*
X129963333Y-124883333D01*
X129842381Y-124822857D01*
X129600476Y-124822857D01*
X129479524Y-124883333D01*
X129419047Y-125004286D01*
X129419047Y-125125238D01*
X130023809Y-125246190D01*
D12*
G36*
X132811520Y-124576840D02*
X132864860Y-124551440D01*
X132984240Y-124475240D01*
X133151880Y-124363480D01*
X133352540Y-124228860D01*
X133553200Y-124094240D01*
X133720840Y-123982480D01*
X133835140Y-123908820D01*
X133883400Y-123880880D01*
X133908800Y-123891040D01*
X134005320Y-123936760D01*
X134145020Y-124010420D01*
X134223760Y-124051060D01*
X134353300Y-124106940D01*
X134414260Y-124117100D01*
X134426960Y-124099320D01*
X134472680Y-124002800D01*
X134546340Y-123835160D01*
X134642860Y-123616720D01*
X134752080Y-123357640D01*
X134868920Y-123080780D01*
X134988300Y-122796300D01*
X135100060Y-122524520D01*
X135199120Y-122283220D01*
X135277860Y-122085100D01*
X135331200Y-121947940D01*
X135351520Y-121886980D01*
X135343900Y-121876820D01*
X135280400Y-121813320D01*
X135168640Y-121729500D01*
X134929880Y-121536460D01*
X134691120Y-121239280D01*
X134546340Y-120901460D01*
X134500620Y-120528080D01*
X134541260Y-120182640D01*
X134675880Y-119849900D01*
X134909560Y-119550180D01*
X135191500Y-119326660D01*
X135519160Y-119186960D01*
X135890000Y-119141240D01*
X136243060Y-119181880D01*
X136583420Y-119313960D01*
X136883140Y-119542560D01*
X137010140Y-119689880D01*
X137185400Y-119992140D01*
X137284460Y-120317260D01*
X137294620Y-120401080D01*
X137279380Y-120756680D01*
X137175240Y-121099580D01*
X136984740Y-121404380D01*
X136723120Y-121655840D01*
X136692640Y-121678700D01*
X136570720Y-121770140D01*
X136489440Y-121831100D01*
X136425940Y-121884440D01*
X136880600Y-122976640D01*
X136951720Y-123151900D01*
X137076180Y-123449080D01*
X137187940Y-123708160D01*
X137274300Y-123913900D01*
X137335260Y-124048520D01*
X137360660Y-124104400D01*
X137365740Y-124106940D01*
X137403840Y-124114560D01*
X137487660Y-124084080D01*
X137640060Y-124010420D01*
X137741660Y-123959620D01*
X137858500Y-123903740D01*
X137909300Y-123880880D01*
X137952480Y-123906280D01*
X138066780Y-123977400D01*
X138229340Y-124086620D01*
X138424920Y-124218700D01*
X138610340Y-124345700D01*
X138780520Y-124460000D01*
X138907520Y-124538740D01*
X138965940Y-124571760D01*
X138976100Y-124571760D01*
X139029440Y-124541280D01*
X139128500Y-124460000D01*
X139278360Y-124317760D01*
X139489180Y-124112020D01*
X139519660Y-124079000D01*
X139692380Y-123903740D01*
X139834620Y-123753880D01*
X139928600Y-123649740D01*
X139961620Y-123601480D01*
X139961620Y-123601480D01*
X139931140Y-123543060D01*
X139852400Y-123418600D01*
X139738100Y-123243340D01*
X139600940Y-123040140D01*
X139237720Y-122514360D01*
X139438380Y-122019060D01*
X139499340Y-121866660D01*
X139575540Y-121681240D01*
X139633960Y-121549160D01*
X139664440Y-121493280D01*
X139717780Y-121472960D01*
X139852400Y-121439940D01*
X140050520Y-121399300D01*
X140284200Y-121356120D01*
X140507720Y-121315480D01*
X140710920Y-121277380D01*
X140858240Y-121249440D01*
X140924280Y-121234200D01*
X140939520Y-121226580D01*
X140952220Y-121193560D01*
X140959840Y-121124980D01*
X140964920Y-121003060D01*
X140967460Y-120810020D01*
X140967460Y-120528080D01*
X140967460Y-120497600D01*
X140964920Y-120230900D01*
X140962380Y-120017540D01*
X140954760Y-119880380D01*
X140944600Y-119824500D01*
X140944600Y-119824500D01*
X140881100Y-119809260D01*
X140738860Y-119778780D01*
X140535660Y-119738140D01*
X140294360Y-119692420D01*
X140279120Y-119689880D01*
X140040360Y-119644160D01*
X139837160Y-119600980D01*
X139697460Y-119567960D01*
X139636500Y-119550180D01*
X139626340Y-119532400D01*
X139575540Y-119440960D01*
X139506960Y-119291100D01*
X139428220Y-119108220D01*
X139349480Y-118920260D01*
X139280900Y-118750080D01*
X139235180Y-118623080D01*
X139222480Y-118567200D01*
X139222480Y-118564660D01*
X139260580Y-118506240D01*
X139341860Y-118384320D01*
X139458700Y-118209060D01*
X139598400Y-118005860D01*
X139611100Y-117990620D01*
X139748260Y-117787420D01*
X139860020Y-117614700D01*
X139933680Y-117492780D01*
X139961620Y-117436900D01*
X139961620Y-117434360D01*
X139915900Y-117373400D01*
X139811760Y-117259100D01*
X139664440Y-117104160D01*
X139486640Y-116923820D01*
X139430760Y-116867940D01*
X139232640Y-116674900D01*
X139095480Y-116550440D01*
X139009120Y-116481860D01*
X138968480Y-116466620D01*
X138968480Y-116469160D01*
X138907520Y-116504720D01*
X138777980Y-116588540D01*
X138605260Y-116707920D01*
X138399520Y-116847620D01*
X138384280Y-116857780D01*
X138181080Y-116994940D01*
X138010900Y-117109240D01*
X137891520Y-117187980D01*
X137838180Y-117221000D01*
X137830560Y-117221000D01*
X137746740Y-117195600D01*
X137601960Y-117144800D01*
X137424160Y-117076220D01*
X137236200Y-117002560D01*
X137066020Y-116928900D01*
X136939020Y-116870480D01*
X136878060Y-116837460D01*
X136875520Y-116832380D01*
X136855200Y-116761260D01*
X136819640Y-116608860D01*
X136776460Y-116400580D01*
X136730740Y-116151660D01*
X136723120Y-116111020D01*
X136677400Y-115869720D01*
X136636760Y-115669060D01*
X136608820Y-115531900D01*
X136596120Y-115473480D01*
X136560560Y-115465860D01*
X136441180Y-115458240D01*
X136260840Y-115453160D01*
X136042400Y-115450620D01*
X135813800Y-115453160D01*
X135587740Y-115455700D01*
X135397240Y-115463320D01*
X135260080Y-115473480D01*
X135201660Y-115483640D01*
X135201660Y-115488720D01*
X135178800Y-115562380D01*
X135145780Y-115714780D01*
X135102600Y-115925600D01*
X135056880Y-116174520D01*
X135046720Y-116217700D01*
X135001000Y-116459000D01*
X134960360Y-116657120D01*
X134932420Y-116794280D01*
X134917180Y-116847620D01*
X134894320Y-116860320D01*
X134795260Y-116903500D01*
X134632700Y-116969540D01*
X134432040Y-117050820D01*
X133967220Y-117238780D01*
X133398260Y-116847620D01*
X133344920Y-116812060D01*
X133139180Y-116672360D01*
X132971540Y-116560600D01*
X132854700Y-116484400D01*
X132806440Y-116456460D01*
X132801360Y-116459000D01*
X132745480Y-116509800D01*
X132631180Y-116616480D01*
X132478780Y-116766340D01*
X132298440Y-116944140D01*
X132166360Y-117076220D01*
X132008880Y-117236240D01*
X131909820Y-117345460D01*
X131853940Y-117414040D01*
X131836160Y-117454680D01*
X131838700Y-117482620D01*
X131876800Y-117541040D01*
X131960620Y-117668040D01*
X132077460Y-117840760D01*
X132217160Y-118041420D01*
X132331460Y-118209060D01*
X132455920Y-118402100D01*
X132534660Y-118539260D01*
X132562600Y-118605300D01*
X132554980Y-118633240D01*
X132516880Y-118745000D01*
X132448300Y-118912640D01*
X132361940Y-119113300D01*
X132163820Y-119565420D01*
X131869180Y-119621300D01*
X131688840Y-119656860D01*
X131439920Y-119705120D01*
X131198620Y-119750840D01*
X130825240Y-119824500D01*
X130810000Y-121201180D01*
X130868420Y-121224040D01*
X130924300Y-121239280D01*
X131064000Y-121269760D01*
X131262120Y-121310400D01*
X131495800Y-121353580D01*
X131693920Y-121391680D01*
X131894580Y-121429780D01*
X132039360Y-121457720D01*
X132102860Y-121470420D01*
X132118100Y-121493280D01*
X132168900Y-121589800D01*
X132240020Y-121744740D01*
X132321300Y-121930160D01*
X132400040Y-122123200D01*
X132471160Y-122301000D01*
X132519420Y-122435620D01*
X132539740Y-122506740D01*
X132511800Y-122560080D01*
X132435600Y-122676920D01*
X132323840Y-122844560D01*
X132189220Y-123045220D01*
X132052060Y-123243340D01*
X131937760Y-123413520D01*
X131856480Y-123537980D01*
X131823460Y-123593860D01*
X131838700Y-123631960D01*
X131919980Y-123728480D01*
X132069840Y-123883420D01*
X132293360Y-124104400D01*
X132331460Y-124139960D01*
X132509260Y-124312680D01*
X132659120Y-124449840D01*
X132763260Y-124543820D01*
X132811520Y-124576840D01*
X132811520Y-124576840D01*
G37*
X132811520Y-124576840D02*
X132864860Y-124551440D01*
X132984240Y-124475240D01*
X133151880Y-124363480D01*
X133352540Y-124228860D01*
X133553200Y-124094240D01*
X133720840Y-123982480D01*
X133835140Y-123908820D01*
X133883400Y-123880880D01*
X133908800Y-123891040D01*
X134005320Y-123936760D01*
X134145020Y-124010420D01*
X134223760Y-124051060D01*
X134353300Y-124106940D01*
X134414260Y-124117100D01*
X134426960Y-124099320D01*
X134472680Y-124002800D01*
X134546340Y-123835160D01*
X134642860Y-123616720D01*
X134752080Y-123357640D01*
X134868920Y-123080780D01*
X134988300Y-122796300D01*
X135100060Y-122524520D01*
X135199120Y-122283220D01*
X135277860Y-122085100D01*
X135331200Y-121947940D01*
X135351520Y-121886980D01*
X135343900Y-121876820D01*
X135280400Y-121813320D01*
X135168640Y-121729500D01*
X134929880Y-121536460D01*
X134691120Y-121239280D01*
X134546340Y-120901460D01*
X134500620Y-120528080D01*
X134541260Y-120182640D01*
X134675880Y-119849900D01*
X134909560Y-119550180D01*
X135191500Y-119326660D01*
X135519160Y-119186960D01*
X135890000Y-119141240D01*
X136243060Y-119181880D01*
X136583420Y-119313960D01*
X136883140Y-119542560D01*
X137010140Y-119689880D01*
X137185400Y-119992140D01*
X137284460Y-120317260D01*
X137294620Y-120401080D01*
X137279380Y-120756680D01*
X137175240Y-121099580D01*
X136984740Y-121404380D01*
X136723120Y-121655840D01*
X136692640Y-121678700D01*
X136570720Y-121770140D01*
X136489440Y-121831100D01*
X136425940Y-121884440D01*
X136880600Y-122976640D01*
X136951720Y-123151900D01*
X137076180Y-123449080D01*
X137187940Y-123708160D01*
X137274300Y-123913900D01*
X137335260Y-124048520D01*
X137360660Y-124104400D01*
X137365740Y-124106940D01*
X137403840Y-124114560D01*
X137487660Y-124084080D01*
X137640060Y-124010420D01*
X137741660Y-123959620D01*
X137858500Y-123903740D01*
X137909300Y-123880880D01*
X137952480Y-123906280D01*
X138066780Y-123977400D01*
X138229340Y-124086620D01*
X138424920Y-124218700D01*
X138610340Y-124345700D01*
X138780520Y-124460000D01*
X138907520Y-124538740D01*
X138965940Y-124571760D01*
X138976100Y-124571760D01*
X139029440Y-124541280D01*
X139128500Y-124460000D01*
X139278360Y-124317760D01*
X139489180Y-124112020D01*
X139519660Y-124079000D01*
X139692380Y-123903740D01*
X139834620Y-123753880D01*
X139928600Y-123649740D01*
X139961620Y-123601480D01*
X139961620Y-123601480D01*
X139931140Y-123543060D01*
X139852400Y-123418600D01*
X139738100Y-123243340D01*
X139600940Y-123040140D01*
X139237720Y-122514360D01*
X139438380Y-122019060D01*
X139499340Y-121866660D01*
X139575540Y-121681240D01*
X139633960Y-121549160D01*
X139664440Y-121493280D01*
X139717780Y-121472960D01*
X139852400Y-121439940D01*
X140050520Y-121399300D01*
X140284200Y-121356120D01*
X140507720Y-121315480D01*
X140710920Y-121277380D01*
X140858240Y-121249440D01*
X140924280Y-121234200D01*
X140939520Y-121226580D01*
X140952220Y-121193560D01*
X140959840Y-121124980D01*
X140964920Y-121003060D01*
X140967460Y-120810020D01*
X140967460Y-120528080D01*
X140967460Y-120497600D01*
X140964920Y-120230900D01*
X140962380Y-120017540D01*
X140954760Y-119880380D01*
X140944600Y-119824500D01*
X140944600Y-119824500D01*
X140881100Y-119809260D01*
X140738860Y-119778780D01*
X140535660Y-119738140D01*
X140294360Y-119692420D01*
X140279120Y-119689880D01*
X140040360Y-119644160D01*
X139837160Y-119600980D01*
X139697460Y-119567960D01*
X139636500Y-119550180D01*
X139626340Y-119532400D01*
X139575540Y-119440960D01*
X139506960Y-119291100D01*
X139428220Y-119108220D01*
X139349480Y-118920260D01*
X139280900Y-118750080D01*
X139235180Y-118623080D01*
X139222480Y-118567200D01*
X139222480Y-118564660D01*
X139260580Y-118506240D01*
X139341860Y-118384320D01*
X139458700Y-118209060D01*
X139598400Y-118005860D01*
X139611100Y-117990620D01*
X139748260Y-117787420D01*
X139860020Y-117614700D01*
X139933680Y-117492780D01*
X139961620Y-117436900D01*
X139961620Y-117434360D01*
X139915900Y-117373400D01*
X139811760Y-117259100D01*
X139664440Y-117104160D01*
X139486640Y-116923820D01*
X139430760Y-116867940D01*
X139232640Y-116674900D01*
X139095480Y-116550440D01*
X139009120Y-116481860D01*
X138968480Y-116466620D01*
X138968480Y-116469160D01*
X138907520Y-116504720D01*
X138777980Y-116588540D01*
X138605260Y-116707920D01*
X138399520Y-116847620D01*
X138384280Y-116857780D01*
X138181080Y-116994940D01*
X138010900Y-117109240D01*
X137891520Y-117187980D01*
X137838180Y-117221000D01*
X137830560Y-117221000D01*
X137746740Y-117195600D01*
X137601960Y-117144800D01*
X137424160Y-117076220D01*
X137236200Y-117002560D01*
X137066020Y-116928900D01*
X136939020Y-116870480D01*
X136878060Y-116837460D01*
X136875520Y-116832380D01*
X136855200Y-116761260D01*
X136819640Y-116608860D01*
X136776460Y-116400580D01*
X136730740Y-116151660D01*
X136723120Y-116111020D01*
X136677400Y-115869720D01*
X136636760Y-115669060D01*
X136608820Y-115531900D01*
X136596120Y-115473480D01*
X136560560Y-115465860D01*
X136441180Y-115458240D01*
X136260840Y-115453160D01*
X136042400Y-115450620D01*
X135813800Y-115453160D01*
X135587740Y-115455700D01*
X135397240Y-115463320D01*
X135260080Y-115473480D01*
X135201660Y-115483640D01*
X135201660Y-115488720D01*
X135178800Y-115562380D01*
X135145780Y-115714780D01*
X135102600Y-115925600D01*
X135056880Y-116174520D01*
X135046720Y-116217700D01*
X135001000Y-116459000D01*
X134960360Y-116657120D01*
X134932420Y-116794280D01*
X134917180Y-116847620D01*
X134894320Y-116860320D01*
X134795260Y-116903500D01*
X134632700Y-116969540D01*
X134432040Y-117050820D01*
X133967220Y-117238780D01*
X133398260Y-116847620D01*
X133344920Y-116812060D01*
X133139180Y-116672360D01*
X132971540Y-116560600D01*
X132854700Y-116484400D01*
X132806440Y-116456460D01*
X132801360Y-116459000D01*
X132745480Y-116509800D01*
X132631180Y-116616480D01*
X132478780Y-116766340D01*
X132298440Y-116944140D01*
X132166360Y-117076220D01*
X132008880Y-117236240D01*
X131909820Y-117345460D01*
X131853940Y-117414040D01*
X131836160Y-117454680D01*
X131838700Y-117482620D01*
X131876800Y-117541040D01*
X131960620Y-117668040D01*
X132077460Y-117840760D01*
X132217160Y-118041420D01*
X132331460Y-118209060D01*
X132455920Y-118402100D01*
X132534660Y-118539260D01*
X132562600Y-118605300D01*
X132554980Y-118633240D01*
X132516880Y-118745000D01*
X132448300Y-118912640D01*
X132361940Y-119113300D01*
X132163820Y-119565420D01*
X131869180Y-119621300D01*
X131688840Y-119656860D01*
X131439920Y-119705120D01*
X131198620Y-119750840D01*
X130825240Y-119824500D01*
X130810000Y-121201180D01*
X130868420Y-121224040D01*
X130924300Y-121239280D01*
X131064000Y-121269760D01*
X131262120Y-121310400D01*
X131495800Y-121353580D01*
X131693920Y-121391680D01*
X131894580Y-121429780D01*
X132039360Y-121457720D01*
X132102860Y-121470420D01*
X132118100Y-121493280D01*
X132168900Y-121589800D01*
X132240020Y-121744740D01*
X132321300Y-121930160D01*
X132400040Y-122123200D01*
X132471160Y-122301000D01*
X132519420Y-122435620D01*
X132539740Y-122506740D01*
X132511800Y-122560080D01*
X132435600Y-122676920D01*
X132323840Y-122844560D01*
X132189220Y-123045220D01*
X132052060Y-123243340D01*
X131937760Y-123413520D01*
X131856480Y-123537980D01*
X131823460Y-123593860D01*
X131838700Y-123631960D01*
X131919980Y-123728480D01*
X132069840Y-123883420D01*
X132293360Y-124104400D01*
X132331460Y-124139960D01*
X132509260Y-124312680D01*
X132659120Y-124449840D01*
X132763260Y-124543820D01*
X132811520Y-124576840D01*
M02*
