%FSLAX46Y46*%
G04 Gerber Fmt 4.6, Leading zero omitted, Abs format (unit mm)*
G04 Created by KiCad (PCBNEW (2014-jul-16 BZR unknown)-product) date Wed 01 Oct 2014 08:58:49 PM PDT*
%MOMM*%
G01*
G04 APERTURE LIST*
%ADD10C,0.100000*%
%ADD11C,6.000000*%
%ADD12R,1.727200X1.727200*%
%ADD13C,1.727200*%
%ADD14R,1.524000X1.524000*%
%ADD15C,1.524000*%
%ADD16C,2.032000*%
%ADD17O,1.699260X3.500120*%
%ADD18R,9.652000X15.748000*%
%ADD19C,1.998980*%
%ADD20C,3.810000*%
%ADD21C,1.016000*%
%ADD22C,0.254000*%
G04 APERTURE END LIST*
D10*
D11*
X105000000Y-105000000D03*
X145000000Y-105000000D03*
X105000000Y-145000000D03*
X145000000Y-145000000D03*
D12*
X129540000Y-106680000D03*
D13*
X132080000Y-106680000D03*
X134620000Y-106680000D03*
D14*
X123730000Y-119920000D03*
D15*
X126270000Y-119920000D03*
X123730000Y-122460000D03*
X126270000Y-122460000D03*
X123730000Y-125000000D03*
X126270000Y-125000000D03*
X123730000Y-127540000D03*
X126270000Y-127540000D03*
X123730000Y-130080000D03*
X126270000Y-130080000D03*
D16*
X145500000Y-133500000D03*
X145500000Y-138500000D03*
X145500000Y-122500000D03*
X145500000Y-127500000D03*
X145500000Y-111500000D03*
X145500000Y-116500000D03*
X104500000Y-133500000D03*
X104500000Y-128500000D03*
X104500000Y-119500000D03*
X104500000Y-114500000D03*
D17*
X136000000Y-130000000D03*
X133460000Y-130000000D03*
X138540000Y-130000000D03*
D18*
X136000000Y-118062000D03*
D17*
X114000000Y-130000000D03*
X111460000Y-130000000D03*
X116540000Y-130000000D03*
D18*
X114000000Y-118062000D03*
D19*
X125095000Y-102235000D03*
X125095000Y-112395000D03*
D16*
X137172700Y-102235000D03*
X132067300Y-102235000D03*
X118122700Y-102235000D03*
X113017300Y-102235000D03*
D20*
X125000000Y-147318000D03*
X125000000Y-138682000D03*
X132924800Y-147318000D03*
X117075200Y-138682000D03*
X132924800Y-138682000D03*
X117075200Y-147318000D03*
D21*
X117075200Y-147318000D02*
X107315000Y-137557800D01*
X113017300Y-103517700D02*
X113017300Y-102235000D01*
X107315000Y-109220000D02*
X113017300Y-103517700D01*
X107315000Y-137557800D02*
X107315000Y-109220000D01*
X116540000Y-130000000D02*
X118285000Y-130000000D01*
X120015000Y-104127300D02*
X118122700Y-102235000D01*
X120015000Y-128270000D02*
X120015000Y-104127300D01*
X118285000Y-130000000D02*
X120015000Y-128270000D01*
X123730000Y-119920000D02*
X121920000Y-121730000D01*
X120557000Y-142875000D02*
X125000000Y-147318000D01*
X116205000Y-142875000D02*
X120557000Y-142875000D01*
X112395000Y-139065000D02*
X116205000Y-142875000D01*
X112395000Y-135890000D02*
X112395000Y-139065000D01*
X114300000Y-133985000D02*
X112395000Y-135890000D01*
X117475000Y-133985000D02*
X114300000Y-133985000D01*
X121920000Y-129540000D02*
X117475000Y-133985000D01*
X121920000Y-121730000D02*
X121920000Y-129540000D01*
X105000000Y-145000000D02*
X105000000Y-142500000D01*
D22*
X133985000Y-101600000D02*
X133985000Y-102870000D01*
X133096000Y-100711000D02*
X133985000Y-101600000D01*
X129159000Y-100711000D02*
X133096000Y-100711000D01*
X123190000Y-106680000D02*
X129159000Y-100711000D01*
X123190000Y-114300000D02*
X123190000Y-106680000D01*
X125095000Y-116205000D02*
X123190000Y-114300000D01*
X125095000Y-123825000D02*
X125095000Y-116205000D01*
X123920000Y-125000000D02*
X125095000Y-123825000D01*
X129540000Y-105410000D02*
X129540000Y-106680000D01*
X130810000Y-104140000D02*
X129540000Y-105410000D01*
X132715000Y-104140000D02*
X130810000Y-104140000D01*
X133985000Y-102870000D02*
X132715000Y-104140000D01*
X123730000Y-125000000D02*
X123920000Y-125000000D01*
X126270000Y-125000000D02*
X126460000Y-125000000D01*
X126460000Y-125000000D02*
X127635000Y-123825000D01*
X127635000Y-123825000D02*
X127635000Y-114935000D01*
X127635000Y-114935000D02*
X125095000Y-112395000D01*
D21*
X145500000Y-122500000D02*
X147320000Y-120680000D01*
X147320000Y-113320000D02*
X145500000Y-111500000D01*
X147320000Y-120680000D02*
X147320000Y-113320000D01*
X138540000Y-130000000D02*
X142875000Y-125665000D01*
X137172700Y-104152700D02*
X137172700Y-102235000D01*
X142875000Y-109855000D02*
X137172700Y-104152700D01*
X142875000Y-125665000D02*
X142875000Y-109855000D01*
X132067300Y-102235000D02*
X130162238Y-102235000D01*
X127000000Y-108585000D02*
X128905000Y-110490000D01*
X127000000Y-105397238D02*
X127000000Y-108585000D01*
X130162238Y-102235000D02*
X127000000Y-105397238D01*
X117075200Y-138682000D02*
X121772200Y-133985000D01*
X128905000Y-132080000D02*
X128905000Y-110490000D01*
X127000000Y-133985000D02*
X128905000Y-132080000D01*
X121772200Y-133985000D02*
X127000000Y-133985000D01*
X145500000Y-138500000D02*
X143510000Y-136510000D01*
X143510000Y-129490000D02*
X145500000Y-127500000D01*
X143510000Y-136510000D02*
X143510000Y-129490000D01*
M02*
